<svg width="24" height="24" viewBox="0 0 24 24" fill="none" xmlns="http://www.w3.org/2000/svg">
<path d="M7.33901 10.085L11.9998 5.42436L16.663 10.0874L19.375 7.37544L11.9998 0L4.62713 7.37304L7.33901 10.085ZM0 11.9996L2.71208 9.28754L5.42399 11.9995L2.71193 14.7115L0 11.9996ZM7.33901 13.915L11.9998 18.5756L16.6629 13.9127L19.3763 16.6232L19.375 16.6247L11.9998 24L4.62689 16.6272L4.62305 16.6234L7.33901 13.915ZM18.5761 12.0011L21.2882 9.28904L24.0001 12.0009L21.288 14.713L18.5761 12.0011Z" fill="#F3BA2F"/>
<path d="M14.7501 11.999H14.7513L11.9994 9.24707L9.96561 11.2808H9.96549L9.73185 11.5146L9.24993 11.9966L9.24609 12.0003L9.24993 12.0043L11.9994 14.7539L14.7513 12.0019L14.7527 12.0003L14.7501 11.999Z" fill="#F3BA2F"/>
</svg>
