<svg width="24" height="24" viewBox="0 0 24 24" fill="none" xmlns="http://www.w3.org/2000/svg">
<g clip-path="url(#clip0_1113_9797)">
<path d="M18.3158 7.70546C17.8737 7.45283 17.3053 7.45283 16.8 7.70546L13.2632 9.78967L10.8632 11.116L7.38947 13.2002C6.94737 13.4528 6.37895 13.4528 5.87368 13.2002L3.15789 11.5581C2.71579 11.3055 2.4 10.8002 2.4 10.2318V7.07388C2.4 6.56862 2.65263 6.06335 3.15789 5.74756L5.87368 4.16862C6.31579 3.91598 6.88421 3.91598 7.38947 4.16862L10.1053 5.81072C10.5474 6.06335 10.8632 6.56862 10.8632 7.13704V9.22125L13.2632 7.83177V5.68441C13.2632 5.17914 13.0105 4.67388 12.5053 4.35809L7.45263 1.38967C7.01053 1.13704 6.44211 1.13704 5.93684 1.38967L0.757895 4.42125C0.252632 4.67388 0 5.17914 0 5.68441V11.6212C0 12.1265 0.252632 12.6318 0.757895 12.9476L5.87368 15.916C6.31579 16.1686 6.88421 16.1686 7.38947 15.916L10.8632 13.8949L13.2632 12.5055L16.7368 10.4844C17.1789 10.2318 17.7474 10.2318 18.2526 10.4844L20.9684 12.0634C21.4105 12.316 21.7263 12.8212 21.7263 13.3897V16.5476C21.7263 17.0528 21.4737 17.5581 20.9684 17.8739L18.3158 19.4528C17.8737 19.7055 17.3053 19.7055 16.8 19.4528L14.0842 17.8739C13.6421 17.6212 13.3263 17.116 13.3263 16.5476V14.5265L10.9263 15.916V18.0002C10.9263 18.5055 11.1789 19.0107 11.6842 19.3265L16.8 22.2949C17.2421 22.5476 17.8105 22.5476 18.3158 22.2949L23.4316 19.3265C23.8737 19.0739 24.1895 18.5686 24.1895 18.0002V12.0002C24.1895 11.4949 23.9368 10.9897 23.4316 10.6739L18.3158 7.70546Z" fill="#8247E5"/>
</g>
<defs>
<clipPath id="clip0_1113_9797">
<rect width="24" height="24" fill="white"/>
</clipPath>
</defs>
</svg>
