<svg width="22" height="24" viewBox="0 0 22 24" fill="none" xmlns="http://www.w3.org/2000/svg">
<g clip-path="url(#clip0_2758_2491)">
<path d="M20.8832 7.74609C20.8653 7.66639 20.8456 7.57236 20.8259 7.47207C20.7006 6.84254 20.5438 6.05809 19.9027 5.63184L19.8445 5.59333C17.0613 3.74057 15.4745 2.70896 15.1288 2.52718C12.7558 1.28156 10.0451 0.564269 7.07211 0.395021C7.00673 0.391439 6.94136 0.389648 6.87868 0.389648C5.99394 0.389648 5.26232 0.770231 4.76264 1.48931C4.23699 2.246 3.8367 3.05821 3.57164 3.5955C3.51164 3.71639 3.44 3.86146 3.39971 3.93758C2.13259 5.35066 0.99263 6.97686 1.11442 9.26126C1.13054 9.55587 1.18158 9.8093 1.27202 10.0314L1.7323 11.9746L1.98035 13.0232L1.99647 13.0196C2.9251 16.4664 4.28355 19.2827 6.13274 21.6038C6.88405 22.5467 7.9658 23.1906 9.25979 23.4646C9.36366 23.487 9.47112 23.4977 9.57858 23.4977C10.3451 23.4977 10.929 22.9667 11.4931 22.4527C11.7125 22.253 12.1155 21.8868 12.2937 21.8241C12.4218 21.8259 12.5534 21.8259 12.685 21.8268C12.7835 21.8268 12.8811 21.8268 12.9796 21.8277C13.0047 21.8277 13.0298 21.8277 13.0549 21.8277C15.0921 21.8277 16.7819 21.0414 18.0795 19.4913C18.4171 19.0875 19.2409 17.6475 19.8901 16.2165C20.6209 14.8375 20.8608 13.6124 20.9414 13.2023V13.2005L20.9432 13.1907C21.1805 11.9701 21.0211 8.33622 20.8841 7.74519L20.8832 7.74609Z" fill="black"/>
<path d="M6.87809 0.389984C6.94077 0.389984 7.00614 0.391775 7.07151 0.395357C10.0445 0.564604 12.7552 1.28189 15.1291 2.52752C15.4748 2.7093 17.0616 3.7409 19.8448 5.59367L19.903 5.63218C20.5433 6.05843 20.7 6.84198 20.8262 7.47241C20.8459 7.5727 20.8647 7.66673 20.8835 7.74643C21.0197 8.33655 21.179 11.9713 20.9426 13.1919L20.9408 13.2017V13.2035C20.8611 13.6137 20.6203 14.8396 19.8895 16.2178C19.2403 17.6487 18.4165 19.0878 18.0789 19.4926C16.7822 21.0426 15.0915 21.8289 13.0543 21.8289C13.0292 21.8289 13.0041 21.8289 12.9791 21.8289C12.8806 21.828 12.7829 21.828 12.6844 21.828C12.5528 21.828 12.4212 21.828 12.2931 21.8253C12.1149 21.8871 11.7119 22.2542 11.4925 22.4539C10.9284 22.9679 10.3445 23.499 9.57799 23.499C9.47053 23.499 9.36307 23.4882 9.25919 23.4658C7.96521 23.1918 6.88436 22.5489 6.13215 21.605C4.28207 19.2839 2.92451 16.4676 1.99588 13.0209L1.97976 13.0244L1.73171 11.9758L1.27143 10.0326C1.18188 9.81053 1.12995 9.5571 1.11383 9.26249C0.99204 6.9781 2.132 5.35189 3.39911 3.93881C3.43941 3.86269 3.51105 3.71762 3.57105 3.59673C3.83611 3.05944 4.2364 2.24633 4.76205 1.49054C5.26173 0.771462 5.99335 0.390879 6.87809 0.390879V0.389984ZM6.87809 0.361328C5.9835 0.361328 5.24382 0.746388 4.73787 1.47353C4.21043 2.232 3.81014 3.04511 3.54508 3.58419C3.48777 3.7015 3.41613 3.84657 3.37583 3.92269C2.11319 5.33129 0.962489 6.95392 1.08517 9.26517C1.10129 9.56427 1.15323 9.81948 1.24457 10.0443L1.70306 11.983L1.95111 13.0316L1.95827 13.0603L1.97529 13.0558C2.9057 16.4962 4.25789 19.2991 6.10976 21.6229C6.86555 22.5712 7.95268 23.2187 9.25382 23.4936C9.35949 23.516 9.46874 23.5276 9.57799 23.5276C10.3562 23.5276 10.9445 22.9921 11.5122 22.4745C11.7263 22.2793 12.123 21.9184 12.2976 21.854C12.4239 21.8557 12.5537 21.8557 12.6835 21.8557H12.6898C12.7856 21.8557 12.8814 21.8557 12.9773 21.8566C13.0023 21.8566 13.0283 21.8566 13.0534 21.8566C15.0996 21.8566 16.7974 21.0668 18.1004 19.5096C18.438 19.1066 19.2663 17.6595 19.9155 16.2285C20.6507 14.8423 20.8898 13.6119 20.9686 13.2071L20.9704 13.1964C21.2077 11.974 21.0483 8.33118 20.9113 7.73926C20.8925 7.65956 20.8737 7.56106 20.854 7.46614C20.7268 6.83124 20.5692 6.04052 19.9182 5.6071L19.86 5.5686C17.0759 3.71493 15.4882 2.68333 15.1417 2.50155C12.765 1.25413 10.0499 0.535053 7.07241 0.366701C7.00614 0.363119 6.94077 0.361328 6.87719 0.361328H6.87809Z" fill="url(#paint0_linear_2758_2491)"/>
<path d="M9.57652 23.5236C9.46727 23.5236 9.35802 23.5119 9.25324 23.4895C7.95389 23.2146 6.86766 22.5681 6.11187 21.6206C4.26 19.296 2.90691 16.4922 1.9774 13.0508L1.96038 13.0553L1.95501 13.0311L1.24668 10.0393C1.15713 9.8181 1.10519 9.56378 1.08907 9.26468C0.966389 6.95343 2.11799 5.3317 3.38063 3.92309C3.41824 3.85056 3.49346 3.69833 3.54898 3.58639C3.81404 3.0491 4.21433 2.23599 4.74177 1.47662C5.24683 0.750376 5.9856 0.366211 6.87841 0.366211C6.94109 0.366211 7.00646 0.368002 7.07362 0.371584C10.0502 0.540831 12.7654 1.25901 15.1411 2.50643C15.4867 2.68732 17.0736 3.71892 19.8594 5.57348L19.9176 5.61288C20.5669 6.04451 20.7245 6.83433 20.8507 7.46833C20.8704 7.56863 20.8892 7.66265 20.908 7.74146C21.045 8.33338 21.2044 11.9753 20.9671 13.1968L20.9653 13.2066C20.8865 13.6123 20.6474 14.8418 19.9114 16.2298C19.2621 17.6599 18.4347 19.1061 18.098 19.5082C16.7968 21.0645 15.0999 21.8535 13.0546 21.8535C13.0295 21.8535 13.0036 21.8535 12.9785 21.8535C12.7501 21.8517 12.5191 21.8535 12.297 21.8499C12.1215 21.9144 11.7248 22.2761 11.5108 22.4705C10.9412 22.9889 10.3538 23.5236 9.57741 23.5236H9.57652ZM2.01232 12.9908L2.01859 13.0141C2.94721 16.4599 4.2985 19.2655 6.15037 21.5893C6.899 22.5278 7.97538 23.168 9.26309 23.4412C9.36518 23.4627 9.46995 23.4734 9.57652 23.4734C10.3341 23.4734 10.9135 22.9451 11.475 22.4346C11.7105 22.2206 12.1018 21.8651 12.2845 21.8006L12.2934 21.7988C12.5164 21.8024 12.7492 21.8006 12.9794 21.8024C13.0044 21.8024 13.0295 21.8024 13.0546 21.8024C15.0838 21.8024 16.7682 21.0198 18.0595 19.475C18.3944 19.0748 19.2191 17.6339 19.8666 16.2065C20.6 14.8239 20.8373 13.5997 20.9161 13.1977L20.9179 13.186C21.1543 11.9691 20.9958 8.34054 20.8588 7.75131C20.8409 7.67161 20.8212 7.57669 20.8015 7.47639C20.677 6.85134 20.5221 6.07316 19.889 5.65228L19.8308 5.61288C17.0467 3.76011 15.4608 2.72851 15.1169 2.54852C12.7465 1.30647 10.0395 0.589188 7.06915 0.420836C7.00378 0.417254 6.93841 0.415463 6.87662 0.415463C6.00083 0.415463 5.27548 0.792464 4.78117 1.50438C4.25552 2.26017 3.85703 3.07148 3.59196 3.60788C3.53644 3.71982 3.46122 3.87295 3.42003 3.95085C2.16097 5.35677 1.01564 6.96865 1.13743 9.262C1.15265 9.55482 1.20369 9.80466 1.29324 10.0241L1.9971 12.9953L2.01232 12.9917V12.9908Z" fill="url(#paint1_linear_2758_2491)"/>
<path d="M6.87721 0.364936C6.9399 0.364936 7.00527 0.366727 7.07243 0.370309C10.049 0.539556 12.7642 1.25774 15.1399 2.50515C15.4855 2.68604 17.0724 3.71765 19.8582 5.5722L19.9164 5.61161C20.5657 6.04323 20.7233 6.83305 20.8495 7.46706C20.8692 7.56735 20.888 7.66138 20.9068 7.74018C21.0438 8.3321 21.2032 11.9741 20.9659 13.1955L20.9641 13.2054C20.8853 13.611 20.6463 14.8405 19.9102 16.2285C19.2609 17.6586 18.4335 19.1048 18.0968 19.5069C16.7956 21.0633 15.0987 21.8522 13.0534 21.8522C13.0283 21.8522 13.0024 21.8522 12.9773 21.8522C12.7489 21.8504 12.5179 21.8522 12.2958 21.8486C12.1203 21.9131 11.7236 22.2749 11.5096 22.4692C10.94 22.9877 10.3526 23.5223 9.57622 23.5223C9.46697 23.5223 9.35772 23.5106 9.25295 23.4883C7.95359 23.2133 6.86736 22.5668 6.11157 21.6194C4.2597 19.2947 2.90661 16.4909 1.9771 13.0495L1.96008 13.054L1.95381 13.0298L1.24548 10.038C1.15593 9.81682 1.104 9.5625 1.08788 9.26341C0.965195 6.95215 2.11679 5.33042 3.37943 3.92182C3.41704 3.84928 3.49226 3.69705 3.54778 3.58511C3.81285 3.04782 4.21313 2.23472 4.74058 1.47534C5.24563 0.749101 5.98441 0.364936 6.87721 0.364936V0.364936ZM1.99769 12.994L2.01292 12.9904L2.01919 13.0137C2.94781 16.4596 4.2991 19.2651 6.15097 21.5889C6.8996 22.5274 7.97598 23.1677 9.26369 23.4408C9.36578 23.4623 9.47055 23.473 9.57711 23.473C10.3347 23.473 10.9141 22.9447 11.4755 22.4343C11.7111 22.2202 12.1024 21.8647 12.2851 21.8003L12.294 21.7985C12.517 21.802 12.7498 21.8003 12.98 21.802C13.005 21.802 13.0301 21.802 13.0552 21.802C15.0844 21.802 16.7688 21.0194 18.0601 19.4747C18.395 19.0744 19.2197 17.6335 19.8672 16.2061C20.6006 14.8235 20.8379 13.5994 20.9167 13.1973L20.9185 13.1857C21.1549 11.9687 20.9964 8.34016 20.8594 7.75093C20.8415 7.67123 20.8218 7.57631 20.8021 7.47601C20.6776 6.85096 20.5227 6.07278 19.8896 5.6519L19.8314 5.6125C17.0473 3.75973 15.4614 2.72813 15.1175 2.54814C12.7471 1.30609 10.0401 0.588808 7.06974 0.420456C7.00437 0.416874 6.939 0.415083 6.87721 0.415083C6.00143 0.415083 5.27608 0.792084 4.78177 1.504C4.25612 2.25979 3.85673 3.0711 3.59256 3.6075C3.53704 3.71944 3.46182 3.87257 3.42063 3.95047C2.16157 5.35639 1.01624 6.96827 1.13802 9.26162C1.15325 9.55444 1.20429 9.80428 1.29384 10.0237L1.99769 12.9949V12.994ZM6.87721 0.286133C5.95755 0.286133 5.19548 0.681939 4.67521 1.43057C4.14418 2.19442 3.74211 3.01021 3.47615 3.55019C3.42331 3.65675 3.35257 3.80182 3.31317 3.87615C2.04336 5.2955 0.885496 6.93156 1.00907 9.26789C1.02519 9.57504 1.07892 9.83742 1.17295 10.0676L1.8777 13.0477L1.88397 13.0719L1.90277 13.1489L1.92158 13.1445C2.85378 16.5634 4.20507 19.352 6.05068 21.6686C6.81811 22.6313 7.91956 23.2868 9.23772 23.5662C9.34787 23.5894 9.46249 23.602 9.57801 23.602C10.3848 23.602 10.9848 23.0566 11.5642 22.5292C11.754 22.3564 12.1436 22.0017 12.3119 21.9292C12.4445 21.931 12.5806 21.931 12.7167 21.9319H13.0543C15.1238 21.9328 16.8413 21.1349 18.1577 19.5597C18.498 19.1532 19.3308 17.6998 19.9827 16.2626C20.7215 14.8692 20.9624 13.6298 21.0421 13.2224C21.2829 11.983 21.1218 8.31867 20.9847 7.72317C20.9668 7.64526 20.948 7.55123 20.9283 7.45273C20.7985 6.8035 20.6382 5.99667 19.9612 5.54623L19.903 5.50773C17.1153 3.65228 15.5258 2.61888 15.1775 2.4362C12.7901 1.18252 10.0652 0.461649 7.07691 0.291506C7.00885 0.287924 6.94169 0.286133 6.87721 0.286133V0.286133ZM2.0559 12.8982L1.36996 10.0049C1.28041 9.7819 1.23115 9.54101 1.21683 9.25714C1.09594 6.99334 2.23321 5.394 3.47973 4.00331L3.486 3.99614L3.49047 3.98808C3.52988 3.91465 3.59972 3.77406 3.65345 3.66392L3.6633 3.64332C3.92658 3.10871 4.32417 2.30098 4.84624 1.54967C5.32623 0.859246 6.02829 0.494782 6.87721 0.494782C6.93721 0.494782 7.00079 0.496573 7.06527 0.500155C10.0231 0.668507 12.7203 1.38132 15.0799 2.62067C15.422 2.79977 17.0052 3.82958 19.7866 5.68056L19.8448 5.71996C20.4501 6.12293 20.6015 6.8832 20.7233 7.49392C20.7448 7.60049 20.7636 7.69362 20.7815 7.77063C20.9167 8.35628 21.0752 11.9624 20.8397 13.1722C20.76 13.5824 20.5245 14.7975 19.7964 16.1703C19.149 17.5968 18.3296 19.0287 17.9983 19.4254C16.7222 20.9513 15.0593 21.7241 13.0543 21.7241H12.98C12.8833 21.7232 12.7865 21.7232 12.6907 21.7223C12.5573 21.7223 12.4239 21.7223 12.2949 21.7197H12.2878L12.2725 21.7223C12.0755 21.7895 11.7451 22.0823 11.4227 22.3761C10.8729 22.8766 10.3042 23.3942 9.57801 23.3942C9.47771 23.3942 9.37831 23.3835 9.28071 23.3638C8.0109 23.0951 6.95064 22.4647 6.21366 21.5406C4.36895 19.2248 3.02213 16.4291 2.0962 12.994L2.08993 12.9707L2.06933 12.8964L2.0568 12.8991L2.0559 12.8982Z" fill="url(#paint2_linear_2758_2491)"/>
<path d="M19.1657 13.391C18.5702 15.1408 17.8601 16.8324 16.5661 18.2043C15.1737 19.68 13.4006 20.117 11.538 19.329C10.6926 18.9717 9.87325 18.4881 9.14701 17.9267C6.80083 16.1124 5.05105 13.7653 3.47767 11.2839C3.20723 10.8577 2.37891 10.8174 2.37891 10.8174C2.37891 10.8174 2.4004 10.9419 2.41204 10.9956C3.19022 14.6098 4.44569 18.0216 6.77576 20.9463C7.4017 21.7316 8.28913 22.2161 9.2876 22.4274C10.0479 22.5886 11.1028 20.7475 12.0842 20.7636C12.3215 20.7672 12.5588 20.7654 12.7961 20.7672C14.5244 20.7842 15.9572 20.1394 17.0649 18.8141C17.4966 18.2983 19.8186 14.1782 19.7899 12.1526C19.7881 12.0352 19.7541 11.9188 19.712 11.6556C19.4971 12.3406 19.3422 12.8689 19.1648 13.3901L19.1657 13.391Z" fill="url(#paint3_linear_2758_2491)"/>
<path d="M2.76843 9.97185C3.57705 9.94856 4.39374 9.95841 5.19162 9.84737C6.6047 9.65126 8.00256 9.34948 9.40848 9.1077C7.39094 8.69488 5.47459 7.80745 3.22333 8.00088C3.63257 7.33821 4.11256 7.01852 4.79402 7.10718C5.18356 7.15822 5.56862 7.25493 5.95099 7.35075C8.71 8.04386 11.4529 8.81129 14.2325 9.41038C15.7861 9.74529 17.3792 10.0686 18.9884 9.97722C19.5087 9.94767 19.6153 9.81155 19.7281 9.21874C19.8096 8.7907 19.7594 8.37519 19.6672 7.97849C19.5508 7.47612 19.3189 7.00061 19.1371 6.51436C19.0386 7.04628 19.0771 7.52089 19.0296 7.98655C18.9499 8.76652 18.5263 9.17038 17.7473 9.19277C17.2977 9.2062 16.8267 9.17486 16.3969 9.05308C14.5334 8.52832 12.6815 7.96416 10.8269 7.41075C10.6953 7.37135 10.8968 7.21285 11.1072 7.21105C13.4973 7.18867 13.9388 7.23165 13.9388 7.23165C14.1474 7.23702 14.5414 7.24687 14.7626 6.99076C14.8369 6.9039 14.871 6.81167 14.888 6.75256C14.8933 6.67555 14.8925 6.55197 14.8369 6.42213C14.6972 6.09707 12.5973 5.0789 11.7663 4.71622C10.9344 4.35355 10.0774 4.04819 9.10759 3.67835C9.02789 3.6479 9.03595 3.58253 9.12282 3.58164C9.94398 3.57716 10.9254 3.63895 12.0126 3.85028C13.7176 4.18072 15.0787 4.75831 16.0423 5.26158C15.9841 4.98756 14.9507 3.72313 14.4581 3.46433C12.077 2.21423 9.51325 1.60529 6.83753 1.45306C6.28322 1.42172 5.82204 1.57753 5.46653 2.08975C4.72507 3.15628 4.76716 3.40791 6.03248 3.78581C7.24318 4.14759 8.48433 4.40728 9.69862 4.75831C10.6004 5.0189 11.4797 5.3556 12.369 5.65828C12.454 5.70036 12.4352 5.81857 12.3224 5.79976C11.2299 5.54634 10.1446 5.25531 9.04312 5.04934C7.62735 4.78518 6.20084 4.57653 4.77432 4.37862C4.55045 4.34728 4.21643 4.42519 4.07584 4.581C2.8938 5.89021 1.90518 7.28359 2.00726 9.19546C2.0386 9.77932 2.25262 9.98617 2.76753 9.97185H2.76843Z" fill="url(#paint4_linear_2758_2491)"/>
<path d="M10.5384 15.5468C10.6629 15.5361 10.8563 15.2468 10.8608 15.0811C10.8913 14.0764 10.876 13.0699 10.876 11.9541C10.5913 12.0911 10.3943 12.1717 10.2116 12.2756C9.21132 12.8433 8.19673 13.0439 7.11229 12.4851C6.89558 12.3732 6.60723 12.323 6.36903 12.3571C6.14248 12.3893 5.85771 12.5218 5.74936 12.7018C5.66428 12.8424 5.74936 13.1639 5.86487 13.3341C6.74693 14.6307 7.92898 15.605 9.27848 16.3823C9.4916 16.505 9.74145 16.5623 10.0146 16.6644C10.0325 16.4978 10.0701 16.3975 10.0486 16.3107C9.94383 15.879 9.99576 15.5916 10.5393 15.5459L10.5384 15.5468Z" fill="url(#paint5_linear_2758_2491)"/>
<path d="M15.6932 17.9134C16.0953 17.5409 16.4652 17.1137 16.766 16.657C17.7556 15.1544 18.1326 14.0431 18.0546 12.2432C16.9326 15.552 15.1774 17.5821 11.5176 18.4623C13.0757 19.202 14.5022 19.0184 15.6932 17.9134V17.9134Z" fill="url(#paint6_linear_2758_2491)"/>
<path d="M14.877 13.388C14.9455 13.1868 14.9398 12.9468 14.5424 13.0104C14.0217 13.0945 13.5141 13.2269 12.9102 13.3587C13.186 13.7433 13.5182 14.0056 14.025 13.9999C14.4893 13.9948 14.7627 13.7248 14.8778 13.3874L14.877 13.388Z" fill="url(#paint7_linear_2758_2491)"/>
</g>
<defs>
<linearGradient id="paint0_linear_2758_2491" x1="1.07532" y1="11.9436" x2="21.0922" y2="11.9436" gradientUnits="userSpaceOnUse">
<stop stop-color="#2735D5"/>
<stop offset="0.3" stop-color="#7266F5"/>
<stop offset="0.38" stop-color="#8573FE"/>
<stop offset="0.62" stop-color="#D09DFD"/>
<stop offset="0.71" stop-color="#EDAEFD"/>
<stop offset="1" stop-color="#32EDFF"/>
</linearGradient>
<linearGradient id="paint1_linear_2758_2491" x1="1.07922" y1="11.944" x2="21.0871" y2="11.944" gradientUnits="userSpaceOnUse">
<stop stop-color="#2735D5"/>
<stop offset="0.3" stop-color="#7266F5"/>
<stop offset="0.38" stop-color="#8573FE"/>
<stop offset="0.62" stop-color="#D09DFD"/>
<stop offset="0.71" stop-color="#EDAEFD"/>
<stop offset="1" stop-color="#32EDFF"/>
</linearGradient>
<linearGradient id="paint2_linear_2758_2491" x1="1.00012" y1="11.9436" x2="21.1656" y2="11.9436" gradientUnits="userSpaceOnUse">
<stop stop-color="#2735D5"/>
<stop offset="0.3" stop-color="#7266F5"/>
<stop offset="0.38" stop-color="#8573FE"/>
<stop offset="0.62" stop-color="#D09DFD"/>
<stop offset="0.71" stop-color="#EDAEFD"/>
<stop offset="1" stop-color="#32EDFF"/>
</linearGradient>
<linearGradient id="paint3_linear_2758_2491" x1="2.3798" y1="16.6273" x2="19.7917" y2="16.6273" gradientUnits="userSpaceOnUse">
<stop stop-color="#2735D5"/>
<stop offset="0.3" stop-color="#7266F5"/>
<stop offset="0.38" stop-color="#8573FE"/>
<stop offset="0.62" stop-color="#D09DFD"/>
<stop offset="0.71" stop-color="#EDAEFD"/>
<stop offset="1" stop-color="#32EDFF"/>
</linearGradient>
<linearGradient id="paint4_linear_2758_2491" x1="2.00099" y1="5.72096" x2="19.7693" y2="5.72096" gradientUnits="userSpaceOnUse">
<stop stop-color="#2735D5"/>
<stop offset="0.3" stop-color="#7266F5"/>
<stop offset="0.38" stop-color="#8573FE"/>
<stop offset="0.62" stop-color="#D09DFD"/>
<stop offset="0.71" stop-color="#EDAEFD"/>
<stop offset="1" stop-color="#32EDFF"/>
</linearGradient>
<linearGradient id="paint5_linear_2758_2491" x1="5.71484" y1="14.3092" x2="10.8798" y2="14.3092" gradientUnits="userSpaceOnUse">
<stop stop-color="#2735D5"/>
<stop stop-color="#2735D5"/>
<stop offset="0.0001" stop-color="#2735D5"/>
<stop offset="0.340278" stop-color="#8572FF"/>
<stop offset="0.652778" stop-color="#EDACFC"/>
<stop offset="1" stop-color="#33ECFE"/>
</linearGradient>
<linearGradient id="paint6_linear_2758_2491" x1="11.5176" y1="15.5753" x2="18.0645" y2="15.5753" gradientUnits="userSpaceOnUse">
<stop stop-color="#2735D5"/>
<stop offset="0.3" stop-color="#7266F5"/>
<stop offset="0.38" stop-color="#8573FE"/>
<stop offset="0.62" stop-color="#D09DFD"/>
<stop offset="0.71" stop-color="#EDAEFD"/>
<stop offset="1" stop-color="#32EDFF"/>
</linearGradient>
<linearGradient id="paint7_linear_2758_2491" x1="12.9093" y1="13.5001" x2="14.9096" y2="13.5001" gradientUnits="userSpaceOnUse">
<stop stop-color="#2735D5"/>
<stop offset="0.3" stop-color="#7266F5"/>
<stop offset="0.38" stop-color="#8573FE"/>
<stop offset="0.62" stop-color="#D09DFD"/>
<stop offset="0.71" stop-color="#EDAEFD"/>
<stop offset="1" stop-color="#32EDFF"/>
</linearGradient>
<clipPath id="clip0_2758_2491">
<rect width="21.104" height="24" fill="white"/>
</clipPath>
</defs>
</svg>
