<svg width="24" height="24" viewBox="0 0 24 24" fill="none" xmlns="http://www.w3.org/2000/svg">
<g clip-path="url(#clip0_377_29327)">
<path d="M3.89572 16.9987C4.04044 16.854 4.23943 16.7695 4.45049 16.7695H23.5902C23.9399 16.7695 24.1148 17.1916 23.8676 17.4389L20.0867 21.2198C19.9419 21.3645 19.743 21.4489 19.5319 21.4489H0.392199C0.0424501 21.4489 -0.132424 21.0268 0.114812 20.7796L3.89572 16.9987Z" fill="url(#paint0_linear_377_29327)"/>
<path d="M3.89572 2.88247C4.04647 2.73774 4.24547 2.65332 4.45049 2.65332H23.5902C23.9399 2.65332 24.1148 3.07543 23.8676 3.32267L20.0867 7.10357C19.9419 7.2483 19.743 7.33272 19.5319 7.33272H0.392199C0.0424501 7.33272 -0.132424 6.91061 0.114812 6.66337L3.89572 2.88247Z" fill="url(#paint1_linear_377_29327)"/>
<path d="M20.0867 9.89516C19.9419 9.75044 19.743 9.66602 19.5319 9.66602H0.392199C0.0424501 9.66602 -0.132424 10.0881 0.114812 10.3354L3.89572 14.1163C4.04044 14.261 4.23943 14.3454 4.45049 14.3454H23.5902C23.9399 14.3454 24.1148 13.9233 23.8676 13.6761L20.0867 9.89516Z" fill="url(#paint2_linear_377_29327)"/>
</g>
<defs>
<linearGradient id="paint0_linear_377_29327" x1="21.7618" y1="0.394335" x2="8.51559" y2="25.7661" gradientUnits="userSpaceOnUse">
<stop stop-color="#00FFA3"/>
<stop offset="1" stop-color="#DC1FFF"/>
</linearGradient>
<linearGradient id="paint1_linear_377_29327" x1="15.9698" y1="-2.62918" x2="2.72363" y2="22.7426" gradientUnits="userSpaceOnUse">
<stop stop-color="#00FFA3"/>
<stop offset="1" stop-color="#DC1FFF"/>
</linearGradient>
<linearGradient id="paint2_linear_377_29327" x1="18.8474" y1="-1.12723" x2="5.60117" y2="24.2446" gradientUnits="userSpaceOnUse">
<stop stop-color="#00FFA3"/>
<stop offset="1" stop-color="#DC1FFF"/>
</linearGradient>
<clipPath id="clip0_377_29327">
<rect width="24" height="24" fill="white"/>
</clipPath>
</defs>
</svg>
