<svg width="32" height="32" viewBox="0 0 32 32" fill="none" xmlns="http://www.w3.org/2000/svg">
<g clip-path="url(#clip0_408_2556)">
<path d="M9.78545 13.4467L15.9998 7.23248L22.2174 13.4499L25.8334 9.83392L15.9998 0L6.16961 9.83072L9.78545 13.4467ZM0.00012207 15.9995L3.61623 12.3834L7.23209 15.9993L3.61602 19.6154L0.00012207 15.9995ZM9.78545 18.5533L15.9998 24.7675L22.2173 18.5502L25.8352 22.1643L25.8334 22.1662L15.9998 32L6.16929 22.1696L6.16417 22.1645L9.78545 18.5533ZM24.7682 16.0015L28.3843 12.3854L32.0002 16.0013L28.3841 19.6174L24.7682 16.0015Z" fill="white"/>
<path d="M19.6675 15.9981H19.6691L15.9998 12.3289L13.2882 15.0405H13.288L12.9765 15.3522L12.3339 15.9949L12.3288 15.9999L12.3339 16.0051L15.9998 19.6712L19.6691 16.0019L19.6709 15.9999L19.6675 15.9981" fill="white"/>
</g>
<defs>
<clipPath id="clip0_408_2556">
<rect width="32" height="32" fill="white"/>
</clipPath>
</defs>
</svg>
