<svg width="24" height="24" viewBox="0 0 24 24" fill="none" xmlns="http://www.w3.org/2000/svg">
<g clip-path="url(#clip0_402_7538)">
<path d="M3.89841 17.3565C4.04325 17.2117 4.24239 17.1272 4.45361 17.1272H23.6078C23.9578 17.1272 24.1328 17.5496 23.8853 17.797L20.1016 21.5808C19.9568 21.7256 19.7576 21.8101 19.5464 21.8101H0.392251C0.0422387 21.8101 -0.132768 21.3877 0.114655 21.1403L3.89841 17.3565Z" fill="white"/>
<path d="M3.89841 3.22932C4.04928 3.08449 4.24843 3 4.45361 3H23.6078C23.9578 3 24.1328 3.42243 23.8853 3.66985L20.1016 7.45361C19.9568 7.59844 19.7576 7.68293 19.5464 7.68293H0.392251C0.0422387 7.68293 -0.132768 7.2605 0.114655 7.01308L3.89841 3.22932Z" fill="white"/>
<path d="M20.1016 10.2476C19.9568 10.1028 19.7576 10.0183 19.5464 10.0183H0.392251C0.0422387 10.0183 -0.132768 10.4407 0.114655 10.6882L3.89841 14.4719C4.04325 14.6168 4.24239 14.7012 4.45361 14.7012H23.6078C23.9578 14.7012 24.1328 14.2788 23.8853 14.0314L20.1016 10.2476Z" fill="white"/>
</g>
<defs>
<clipPath id="clip0_402_7538">
<rect width="24" height="24" fill="white"/>
</clipPath>
</defs>
</svg>
