<svg width="32" height="32" viewBox="0 0 32 32" fill="none" xmlns="http://www.w3.org/2000/svg">
<g clip-path="url(#clip0_320_1419)">
<path d="M5.19805 23.1421C5.39116 22.949 5.65668 22.8363 5.9383 22.8363H31.4772C31.9438 22.8363 32.1772 23.3995 31.8473 23.7294L26.8023 28.7744C26.6092 28.9676 26.3436 29.0802 26.062 29.0802H0.523165C0.056481 29.0802 -0.176861 28.517 0.153036 28.1871L5.19805 23.1421Z" fill="white"/>
<path d="M5.19805 4.30576C5.3992 4.11265 5.66473 4 5.9383 4H31.4772C31.9438 4 32.1772 4.56324 31.8473 4.89314L26.8023 9.93814C26.6092 10.1313 26.3436 10.2439 26.062 10.2439H0.523165C0.056481 10.2439 -0.176861 9.68066 0.153036 9.35077L5.19805 4.30576Z" fill="white"/>
<path d="M26.8023 13.6635C26.6092 13.4704 26.3436 13.3578 26.062 13.3578H0.523165C0.056481 13.3578 -0.176861 13.921 0.153036 14.2509L5.19805 19.2959C5.39116 19.489 5.65668 19.6017 5.9383 19.6017H31.4772C31.9438 19.6017 32.1772 19.0385 31.8473 18.7086L26.8023 13.6635Z" fill="white"/>
</g>
<defs>
<clipPath id="clip0_320_1419">
<rect width="32" height="32" fill="white"/>
</clipPath>
</defs>
</svg>
