<svg width="33" height="20" viewBox="0 0 33 20" fill="none" xmlns="http://www.w3.org/2000/svg">
<path d="M7.05521 4.02276C12.273 -1.08766 20.7353 -1.08766 25.953 4.02276L26.5805 4.6337C26.8447 4.88963 26.8447 5.30243 26.5805 5.55836L24.434 7.66362C24.3019 7.78746 24.0955 7.78746 23.9634 7.66362L23.0965 6.81326C19.4556 3.2467 13.5526 3.2467 9.91177 6.81326L8.9871 7.72142C8.85501 7.84525 8.64861 7.84525 8.51651 7.72142L6.36171 5.62441C6.09752 5.36847 6.09752 4.95568 6.36171 4.69974L7.05521 4.02276ZM30.3947 8.37363L32.3101 10.2477C32.5743 10.5037 32.5743 10.9165 32.3101 11.1724L23.6827 19.6182C23.4185 19.8741 22.9974 19.8741 22.7415 19.6182L16.6238 13.6244C16.5578 13.5584 16.4505 13.5584 16.3844 13.6244L10.2668 19.6182C10.0026 19.8741 9.58153 19.8741 9.32559 19.6182L0.698142 11.1724C0.433953 10.9165 0.433953 10.5037 0.698142 10.2477L2.61352 8.37363C2.87771 8.1177 3.29876 8.1177 3.5547 8.37363L9.67234 14.3674C9.73839 14.4335 9.84572 14.4335 9.91177 14.3674L16.0294 8.37363C16.2936 8.1177 16.7147 8.1177 16.9706 8.37363L23.0882 14.3674C23.1543 14.4335 23.2616 14.4335 23.3277 14.3674L29.4453 8.37363C29.7095 8.1177 30.1305 8.1177 30.3947 8.37363Z" fill="#3B99FC"/>
</svg>
