<svg width="40" height="40" viewBox="0 0 40 40" fill="none" xmlns="http://www.w3.org/2000/svg">
<g clip-path="url(#clip0_1655_8289)">
<path d="M32.4888 0H7.25854C3.2322 0 0 3.252 0 7.304V32.696C0 36.748 3.2322 40 7.25854 40H32.4878C36.4576 40 39.7463 36.748 39.7463 32.696V7.304C39.7463 3.252 36.5151 0 32.4888 0ZM26.3659 9.986C29.3141 9.986 31.6956 12.382 31.6956 15.35C31.6956 16.262 31.4683 17.118 31.0712 17.917C30.3912 17.404 29.6546 16.947 28.8605 16.662C29.0868 16.262 29.201 15.806 29.201 15.35C29.201 13.809 27.9532 12.554 26.4224 12.554C24.8907 12.554 23.6439 13.809 23.6439 15.35C23.6439 15.806 23.7571 16.262 23.9844 16.662C23.1902 16.947 22.3961 17.347 21.7727 17.917C21.319 17.118 21.1483 16.262 21.1483 15.349C21.0361 12.382 23.4176 9.986 26.3659 9.986ZM13.3805 30.014C10.4332 30.014 8.05171 27.618 8.05171 24.651H10.6029C10.6029 26.191 11.8507 27.447 13.3815 27.447C14.9122 27.447 16.16 26.191 16.16 24.651H18.7112C18.7112 27.618 16.3288 30.014 13.3805 30.014ZM13.3805 22.482C9.97951 22.482 7.20098 19.686 7.20098 16.262C7.20098 12.839 9.97951 9.986 13.3815 9.986C16.7834 9.986 19.6185 12.782 19.6185 16.262C19.5619 19.686 16.7824 22.482 13.3805 22.482ZM26.3659 30.014C22.9639 30.014 20.1288 27.218 20.1288 23.794C20.1288 20.314 22.9073 17.518 26.3659 17.518C29.7678 17.518 32.5463 20.314 32.5463 23.795C32.5463 27.218 29.7678 30.014 26.3659 30.014ZM30.0507 23.738C30.0507 25.792 28.4068 27.389 26.3659 27.389C24.3249 27.389 22.68 25.735 22.68 23.738C22.68 21.683 24.3249 20.028 26.3659 20.028C28.4068 20.086 30.0507 21.74 30.0507 23.738ZM17.0098 16.262C17.0098 18.317 15.3659 19.972 13.3249 19.972C11.2829 19.972 9.63902 18.317 9.63902 16.262C9.63902 14.208 11.2829 12.553 13.3249 12.553C15.4224 12.553 17.0098 14.208 17.0098 16.263V16.262Z" fill="#D9B432"/>
</g>
<defs>
<clipPath id="clip0_1655_8289">
<rect width="40" height="40" rx="20" fill="white"/>
</clipPath>
</defs>
</svg>
