<svg width="41" height="40" viewBox="0 0 41 40" fill="none" xmlns="http://www.w3.org/2000/svg">
<g clip-path="url(#clip0_1655_8283)">
<path d="M20.5 0C31.5469 0 40.5 8.95312 40.5 20C40.5 31.0469 31.5469 40 20.5 40C9.45312 40 0.5 31.0469 0.5 20C0.5 8.95312 9.45312 0 20.5 0Z" fill="#0052FF"/>
<path d="M20.5039 27.0312C16.6211 27.0312 13.4727 23.8867 13.4727 20C13.4727 16.1133 16.6211 12.9688 20.5039 12.9688C23.9844 12.9688 26.875 15.5078 27.4297 18.8281H34.5117C33.9141 11.6094 27.8711 5.9375 20.5 5.9375C12.7344 5.9375 6.4375 12.2344 6.4375 20C6.4375 27.7656 12.7344 34.0625 20.5 34.0625C27.8711 34.0625 33.9141 28.3906 34.5117 21.1719H27.4258C26.8672 24.4922 23.9844 27.0312 20.5039 27.0312Z" fill="white"/>
</g>
<defs>
<clipPath id="clip0_1655_8283">
<rect width="40" height="40" fill="white" transform="translate(0.5)"/>
</clipPath>
</defs>
</svg>
