<svg width="49" height="56" viewBox="0 0 49 56" fill="none" xmlns="http://www.w3.org/2000/svg">
<path d="M47.0975 18.0742C47.0559 17.8882 47.0102 17.6689 46.9644 17.4348C46.6733 15.9659 46.3095 14.1356 44.8208 13.141L44.6856 13.0511C38.2235 8.72799 34.5392 6.32092 33.7367 5.89675C28.2269 2.9903 21.9332 1.31663 15.0303 0.921717C14.8785 0.913359 14.7267 0.90918 14.5812 0.90918C12.527 0.90918 10.8283 1.79721 9.66811 3.47505C8.44763 5.24066 7.51824 7.13581 6.9028 8.3895C6.7635 8.67158 6.59716 9.01007 6.5036 9.18768C3.56156 12.4849 0.914766 16.2794 1.19753 21.6096C1.23496 22.297 1.35347 22.8884 1.56347 23.4065L2.63217 27.9407L3.2081 30.3875L3.24552 30.3791C5.40163 38.4215 8.55575 44.9929 12.8493 50.4088C14.5937 52.609 17.1053 54.1114 20.1097 54.7507C20.3509 54.803 20.6004 54.8281 20.8499 54.8281C22.6297 54.8281 23.9853 53.589 25.2952 52.3896C25.8046 51.9237 26.7402 51.0691 27.154 50.9228C27.4513 50.927 27.757 50.927 28.0626 50.9291C28.2913 50.9291 28.5179 50.9291 28.7466 50.9312C28.8049 50.9312 28.8631 50.9312 28.9213 50.9312C33.6514 50.9312 37.5748 49.0966 40.5876 45.4798C41.3714 44.5374 43.2843 41.1775 44.7917 37.8385C46.4883 34.6208 47.0455 31.7624 47.2326 30.8054V30.8012L47.2368 30.7782C47.7878 27.9303 47.4177 19.4512 47.0996 18.0721L47.0975 18.0742Z" fill="black"/>
<path d="M14.581 0.909637C14.7265 0.909637 14.8783 0.913815 15.0301 0.922173C21.9329 1.31708 28.2266 2.99075 33.7385 5.89721C34.5411 6.32137 38.2254 8.72845 44.6875 13.0516L44.8226 13.1414C46.3092 14.136 46.6731 15.9643 46.9662 17.4353C47.012 17.6693 47.0557 17.8887 47.0993 18.0747C47.4154 19.4516 47.7854 27.9328 47.2365 30.7808L47.2324 30.8037V30.8079C47.0473 31.7649 46.488 34.6254 44.7914 37.8411C43.284 41.1801 41.3712 44.5379 40.5873 45.4823C37.5767 49.0992 33.6512 50.9337 28.9211 50.9337C28.8628 50.9337 28.8046 50.9337 28.7464 50.9337C28.5177 50.9316 28.2911 50.9316 28.0624 50.9316C27.7567 50.9316 27.4511 50.9316 27.1538 50.9254C26.74 51.0696 25.8044 51.9262 25.295 52.3922C23.9851 53.5916 22.6295 54.8306 20.8497 54.8306C20.6002 54.8306 20.3507 54.8055 20.1095 54.7533C17.1051 54.1139 14.5955 52.6137 12.849 50.4114C8.55342 44.9955 5.40139 38.4241 3.24528 30.3817L3.20786 30.39L2.63192 27.9433L1.56323 23.4091C1.35531 22.8909 1.23472 22.2996 1.19729 21.6121C0.914523 16.2819 3.56132 12.4874 6.50336 9.19022C6.59692 9.01262 6.76325 8.67412 6.90256 8.39204C7.51799 7.13836 8.44739 5.24112 9.66786 3.4776C10.828 1.79975 12.5267 0.911726 14.581 0.911726V0.909637ZM14.581 0.842773C12.5039 0.842773 10.7865 1.74125 9.61173 3.4379C8.38709 5.20768 7.4577 7.10493 6.84226 8.36279C6.70919 8.63651 6.54286 8.97501 6.4493 9.15261C3.51765 12.4394 0.84591 16.2255 1.13076 21.6184C1.16818 22.3163 1.28877 22.9118 1.50085 23.4363L2.56539 27.96L3.14132 30.4067L3.15796 30.4736L3.19746 30.4632C5.35773 38.4909 8.49729 45.031 12.797 50.4532C14.5519 52.6659 17.076 54.1766 20.097 54.8181C20.3424 54.8703 20.596 54.8975 20.8497 54.8975C22.6565 54.8975 24.0225 53.648 25.3407 52.4403C25.8376 51.9847 26.7587 51.1427 27.1642 50.9922C27.4573 50.9964 27.7588 50.9964 28.0603 50.9964H28.0748C28.2973 50.9964 28.5198 50.9964 28.7423 50.9985C28.8005 50.9985 28.8608 50.9985 28.919 50.9985C33.6699 50.9985 37.612 49.1556 40.6372 45.522C41.4211 44.5817 43.3443 41.2051 44.8517 37.8662C46.5587 34.6317 47.1139 31.7607 47.2968 30.8163L47.301 30.7912C47.852 27.9391 47.4819 19.4391 47.1638 18.058C47.1201 17.872 47.0764 17.6421 47.0307 17.4207C46.7355 15.9392 46.3695 14.0942 44.858 13.0829L44.7228 12.9931C38.2586 8.66785 34.5723 6.26078 33.7676 5.83662C28.2495 2.92598 21.9454 1.24813 15.0321 0.85531C14.8783 0.846952 14.7265 0.842773 14.5789 0.842773H14.581Z" fill="url(#paint0_linear_1405_9244)"/>
<path d="M20.8479 54.8863C20.5943 54.8863 20.3406 54.8592 20.0974 54.8069C17.0805 54.1655 14.5584 52.6569 12.8036 50.4462C8.50386 45.0219 5.36222 38.4798 3.20403 30.4499L3.16453 30.4604L3.15205 30.404L1.50742 23.423C1.2995 22.9069 1.17891 22.3135 1.14148 21.6156C0.856638 16.2227 3.53046 12.4387 6.4621 9.15193C6.54943 8.98268 6.72408 8.62747 6.85299 8.36629C7.46842 7.1126 8.39782 5.21536 9.62245 3.44349C10.7951 1.74892 12.5104 0.852539 14.5834 0.852539C14.7289 0.852539 14.8807 0.856718 15.0366 0.865076C21.9478 1.25999 28.2519 2.93574 33.768 5.84638C34.5705 6.26846 38.2548 8.67553 44.7231 13.0028L44.8583 13.0948C46.3657 14.1019 46.7316 15.9448 47.0248 17.4242C47.0705 17.6582 47.1142 17.8776 47.1579 18.0614C47.476 19.4426 47.8461 27.9405 47.2951 30.7905L47.2909 30.8135C47.108 31.76 46.5528 34.6289 44.8437 37.8676C43.3363 41.2045 41.4152 44.579 40.6334 45.5171C37.6124 49.1486 33.6723 50.9895 28.9235 50.9895C28.8653 50.9895 28.805 50.9895 28.7467 50.9895C28.2165 50.9853 27.6801 50.9895 27.1645 50.9811C26.757 51.1316 25.8359 51.9757 25.339 52.4291C24.0166 53.6389 22.6527 54.8863 20.85 54.8863H20.8479ZM3.28512 30.3099L3.29967 30.3643C5.45578 38.4046 8.59326 44.9509 12.893 50.3731C14.6312 52.5628 17.1304 54.0568 20.1202 54.6941C20.3573 54.7443 20.6005 54.7693 20.8479 54.7693C22.6069 54.7693 23.9522 53.5365 25.2558 52.3455C25.8026 51.8462 26.7112 51.0166 27.1354 50.8662L27.1562 50.862C27.6739 50.8704 28.2145 50.8662 28.7488 50.8704C28.807 50.8704 28.8653 50.8704 28.9235 50.8704C33.6349 50.8704 37.5458 49.0442 40.544 45.4398C41.3216 44.5058 43.2365 41.1439 44.7398 37.8132C46.4426 34.5871 46.9936 31.7308 47.1766 30.7926L47.1807 30.7655C47.7296 27.9259 47.3616 19.4593 47.0435 18.0844C47.0019 17.8985 46.9562 17.677 46.9104 17.443C46.6214 15.9845 46.2617 14.1688 44.7918 13.1867L44.6566 13.0948C38.1924 8.77165 34.5102 6.36457 33.7118 5.94459C28.2082 3.04649 21.9229 1.37282 15.0262 0.979997C14.8745 0.971639 14.7227 0.96746 14.5792 0.96746C12.5458 0.96746 10.8616 1.84713 9.71394 3.50826C8.49346 5.27178 7.56823 7.16484 6.95279 8.41644C6.82388 8.67762 6.64923 9.03492 6.55359 9.2167C3.63026 12.4972 0.970992 16.2582 1.25376 21.6094C1.28911 22.2926 1.40762 22.8756 1.61554 23.3875L3.24977 30.3204L3.28512 30.312V30.3099Z" fill="url(#paint1_linear_1405_9244)"/>
<path d="M14.579 0.850866C14.7246 0.850866 14.8764 0.855045 15.0323 0.863403C21.9435 1.25831 28.2476 2.93407 33.7636 5.84471C34.5662 6.26678 38.2505 8.67386 44.7188 13.0012L44.854 13.0931C46.3614 14.1002 46.7273 15.9431 47.0205 17.4225C47.0662 17.6565 47.1099 17.8759 47.1535 18.0598C47.4716 19.4409 47.8417 27.9388 47.2907 30.7889L47.2866 30.8118C47.1036 31.7584 46.5485 34.6272 44.8394 37.8659C43.332 41.2028 41.4108 44.5773 40.6291 45.5155C37.608 49.147 33.668 50.9878 28.9191 50.9878C28.8609 50.9878 28.8006 50.9878 28.7424 50.9878C28.2122 50.9836 27.6758 50.9878 27.1601 50.9794C26.7526 51.1299 25.8315 51.974 25.3346 52.4275C24.0123 53.6373 22.6483 54.8847 20.8457 54.8847C20.592 54.8847 20.3384 54.8575 20.0951 54.8053C17.0782 54.1638 14.5562 52.6552 12.8013 50.4445C8.50159 45.0203 5.35995 38.4781 3.20177 30.4483L3.16226 30.4587L3.14771 30.4023L1.50308 23.4214C1.29516 22.9053 1.17457 22.3119 1.13714 21.614C0.852293 16.221 3.52612 12.437 6.45776 9.15026C6.54508 8.98101 6.71974 8.6258 6.84864 8.36462C7.46408 7.11093 8.39347 5.21369 9.61811 3.44181C10.7908 1.74725 12.5061 0.850866 14.579 0.850866ZM3.24959 30.3187L3.28493 30.3104L3.29949 30.3647C5.45559 38.405 8.59307 44.9513 12.8928 50.3735C14.631 52.5633 17.1302 54.0572 20.12 54.6945C20.3571 54.7447 20.6003 54.7697 20.8478 54.7697C22.6067 54.7697 23.952 53.537 25.2556 52.346C25.8024 51.8466 26.711 51.0171 27.1352 50.8666L27.156 50.8624C27.6737 50.8708 28.2143 50.8666 28.7486 50.8708C28.8069 50.8708 28.8651 50.8708 28.9233 50.8708C33.6347 50.8708 37.5456 49.0446 40.5438 45.4402C41.3214 44.5063 43.2363 41.1443 44.7396 37.8137C46.4424 34.5875 46.9934 31.7312 47.1764 30.793L47.1806 30.7659C47.7295 27.9263 47.3614 19.4597 47.0433 18.0849C47.0017 17.8989 46.956 17.6774 46.9103 17.4434C46.6213 15.9849 46.2616 14.1692 44.7916 13.1871L44.6564 13.0952C38.1923 8.77206 34.51 6.36499 33.7116 5.945C28.208 3.0469 21.9227 1.37323 15.0261 0.980413C14.8743 0.972055 14.7225 0.967876 14.579 0.967876C12.5456 0.967876 10.8615 1.84755 9.71375 3.50868C8.49328 5.27219 7.56596 7.16526 6.9526 8.41685C6.82369 8.67804 6.64904 9.03534 6.5534 9.21712C3.63008 12.4976 0.970806 16.2586 1.25357 21.6098C1.28892 22.2931 1.40743 22.876 1.61535 23.3879L3.24959 30.3208V30.3187ZM14.579 0.666992C12.4437 0.666992 10.6743 1.59054 9.46633 3.33734C8.23338 5.11966 7.29983 7.02317 6.68231 8.28313C6.55964 8.53177 6.39538 8.87027 6.3039 9.04369C3.35562 12.3555 0.667246 16.173 0.954173 21.6244C0.991598 22.3411 1.11635 22.9533 1.33466 23.4903L2.97098 30.4441L2.98553 30.5005L3.02919 30.6802L3.07286 30.6698C5.23728 38.6474 8.37476 45.154 12.6599 50.5595C14.4418 52.8056 16.9992 54.3351 20.0597 54.9871C20.3155 55.0414 20.5816 55.0706 20.8498 55.0706C22.7232 55.0706 24.1162 53.7981 25.4615 52.5674C25.9022 52.1642 26.8067 51.3367 27.1976 51.1675C27.5053 51.1717 27.8213 51.1717 28.1374 51.1738H28.9212C33.7262 51.1759 37.7141 49.3141 40.7704 45.6387C41.5605 44.6901 43.4942 41.2989 45.0078 37.9453C46.7231 34.6941 47.2824 31.8022 47.4675 30.8515C48.0268 27.9597 47.6525 19.4096 47.3344 18.0201C47.2928 17.8383 47.2492 17.6189 47.2034 17.3891C46.9019 15.8742 46.5298 13.9916 44.9579 12.9406L44.8228 12.8507C38.3503 8.52133 34.6597 6.11007 33.8509 5.68382C28.3078 2.75856 21.9809 1.07653 15.0427 0.679529C14.8847 0.671171 14.7287 0.666992 14.579 0.666992ZM3.38473 30.0951L1.79208 23.3441C1.58416 22.8238 1.46981 22.2617 1.43654 21.5993C1.15585 16.3172 3.79641 12.5854 6.69063 9.3404L6.70518 9.32368L6.71558 9.30488C6.80706 9.13354 6.96924 8.8055 7.09399 8.54849L7.11686 8.50043C7.72814 7.25302 8.65129 5.36831 9.86345 3.61524C10.9779 2.00426 12.608 1.15384 14.579 1.15384C14.7183 1.15384 14.866 1.15802 15.0157 1.16638C21.8832 1.5592 28.1457 3.22242 33.6243 6.11425C34.4186 6.53215 38.0945 8.93504 44.5525 13.254L44.6876 13.3459C46.0931 14.2862 46.4445 16.0601 46.7273 17.4852C46.7772 17.7338 46.8209 17.9511 46.8624 18.1308C47.1764 19.4973 47.5444 27.9116 46.9976 30.7345C46.8125 31.6915 46.2657 34.5269 44.5753 37.7301C43.0721 41.0586 41.1696 44.3997 40.4003 45.3253C37.4375 48.8858 33.5765 50.689 28.9212 50.689H28.7486C28.5241 50.6869 28.2995 50.6869 28.0771 50.6848C27.7673 50.6848 27.4575 50.6848 27.1581 50.6786H27.1414L27.1061 50.6848C26.6487 50.8415 25.8814 51.5248 25.1329 52.2101C23.8563 53.3782 22.536 54.5859 20.8498 54.5859C20.617 54.5859 20.3862 54.5608 20.1595 54.5148C17.2113 53.888 14.7495 52.417 13.0384 50.2607C8.75525 44.8573 5.62817 38.3339 3.4783 30.3187L3.46374 30.2644L3.41592 30.091L3.38681 30.0972L3.38473 30.0951Z" fill="url(#paint2_linear_1405_9244)"/>
<path d="M43.5466 31.2454C42.1639 35.3282 40.5152 39.2752 37.5107 42.4763C34.2776 45.9198 30.1608 46.9394 25.8362 45.1007C23.8734 44.267 21.971 43.1387 20.2847 41.8286C14.8373 37.5953 10.7746 32.1188 7.12146 26.3289C6.49355 25.3343 4.57031 25.2402 4.57031 25.2402C4.57031 25.2402 4.62021 25.5307 4.64724 25.656C6.45405 34.0892 9.36906 42.0501 14.7791 48.8743C16.2324 50.7067 18.2929 51.8372 20.6112 52.3303C22.3764 52.7064 24.8257 48.4104 27.1045 48.448C27.6554 48.4564 28.2064 48.4522 28.7574 48.4564C32.7702 48.4961 36.0969 46.9917 38.6688 43.8992C39.671 42.6957 45.0623 33.082 44.9958 28.3556C44.9916 28.0819 44.9126 27.8103 44.8149 27.196C44.3159 28.7944 43.9562 30.0272 43.5445 31.2433L43.5466 31.2454Z" fill="url(#paint3_linear_1405_9244)"/>
<path d="M5.47459 23.268C7.35209 23.2136 9.2483 23.2366 11.1008 22.9775C14.3818 22.5199 17.6274 21.8158 20.8917 21.2516C16.2073 20.2884 11.7579 18.2177 6.53081 18.669C7.481 17.1228 8.59544 16.3769 10.1777 16.5837C11.0821 16.7028 11.9762 16.9285 12.864 17.1521C19.2699 18.7693 25.6385 20.56 32.0922 21.9579C35.6996 22.7393 39.3985 23.4936 43.1348 23.2805C44.3428 23.2116 44.5902 22.894 44.8522 21.5107C45.0414 20.512 44.9249 19.5424 44.7108 18.6168C44.4405 17.4446 43.902 16.3351 43.4799 15.2005C43.2512 16.4417 43.3406 17.5491 43.2304 18.6356C43.0453 20.4555 42.0619 21.3979 40.253 21.4501C39.2093 21.4815 38.1156 21.4083 37.1176 21.1242C32.7908 19.8997 28.4911 18.5834 24.1851 17.2921C23.8795 17.2001 24.3473 16.8303 24.8359 16.8261C30.3852 16.7739 31.4103 16.8742 31.4103 16.8742C31.8947 16.8867 32.8096 16.9097 33.3231 16.3121C33.4957 16.1094 33.5747 15.8942 33.6142 15.7563C33.6267 15.5766 33.6246 15.2883 33.4957 14.9853C33.1713 14.2268 28.2957 11.8511 26.3662 11.0048C24.4346 10.1586 22.4448 9.4461 20.1931 8.58314C20.008 8.5121 20.0268 8.35957 20.2284 8.35748C22.135 8.34703 24.4138 8.49121 26.938 8.98432C30.8967 9.75534 34.0571 11.103 36.2943 12.2773C36.1591 11.638 33.7597 8.68762 32.6162 8.08376C27.0877 5.16685 21.135 3.74601 14.9224 3.3908C13.6354 3.31767 12.5646 3.68124 11.7392 4.87642C10.0176 7.36498 10.1153 7.95212 13.0532 8.83388C15.8642 9.67803 18.746 10.284 21.5654 11.1031C23.6591 11.7111 25.7008 12.4967 27.7655 13.203C27.963 13.3012 27.9193 13.577 27.6573 13.5331C25.1208 12.9418 22.6008 12.2627 20.0434 11.7821C16.7562 11.1657 13.4441 10.6789 10.132 10.2171C9.61216 10.144 8.83662 10.3258 8.51019 10.6893C5.76568 13.7441 3.47026 16.9954 3.70729 21.4564C3.78006 22.8187 4.27698 23.3014 5.47251 23.268H5.47459Z" fill="url(#paint4_linear_1405_9244)"/>
<path d="M23.5155 36.2775C23.8045 36.2524 24.2536 35.5775 24.264 35.191C24.3347 32.8466 24.2993 30.498 24.2993 27.8945C23.6382 28.2142 23.1807 28.4023 22.7566 28.6447C20.4342 29.9694 18.0784 30.4374 15.5606 29.1336C15.0574 28.8724 14.3879 28.7554 13.8348 28.8348C13.3088 28.91 12.6476 29.2193 12.396 29.6392C12.1985 29.9673 12.396 30.7174 12.6643 31.1144C14.7123 34.14 17.4568 36.4133 20.5901 38.227C21.0849 38.5132 21.665 38.647 22.2992 38.8852C22.3408 38.4965 22.4281 38.2625 22.3782 38.0598C22.1349 37.0527 22.2555 36.382 23.5176 36.2754L23.5155 36.2775Z" fill="url(#paint5_linear_1405_9244)"/>
<path d="M35.4852 41.797C36.4188 40.9277 37.2775 39.9311 37.9761 38.8654C40.2736 35.3593 41.1489 32.7662 40.968 28.5664C38.3628 36.287 34.2876 41.0239 25.79 43.0778C29.4078 44.8037 32.7199 44.3754 35.4852 41.797Z" fill="url(#paint6_linear_1405_9244)"/>
<path d="M33.5206 30.6835C33.6952 30.0232 33.6807 29.2355 32.6681 29.4444C31.3416 29.7202 30.0484 30.1549 28.5098 30.5874C29.2125 31.8494 30.0588 32.7103 31.3499 32.6915C32.533 32.6748 33.2295 31.7888 33.5227 30.6814L33.5206 30.6835Z" fill="url(#paint7_linear_1405_9244)"/>
<defs>
<linearGradient id="paint0_linear_1405_9244" x1="1.10789" y1="27.868" x2="47.5838" y2="27.868" gradientUnits="userSpaceOnUse">
<stop stop-color="#2735D5"/>
<stop offset="0.3" stop-color="#7266F5"/>
<stop offset="0.38" stop-color="#8573FE"/>
<stop offset="0.62" stop-color="#D09DFD"/>
<stop offset="0.71" stop-color="#EDAEFD"/>
<stop offset="1" stop-color="#32EDFF"/>
</linearGradient>
<linearGradient id="paint1_linear_1405_9244" x1="1.11861" y1="27.8674" x2="47.5737" y2="27.8674" gradientUnits="userSpaceOnUse">
<stop stop-color="#2735D5"/>
<stop offset="0.3" stop-color="#7266F5"/>
<stop offset="0.38" stop-color="#8573FE"/>
<stop offset="0.62" stop-color="#D09DFD"/>
<stop offset="0.71" stop-color="#EDAEFD"/>
<stop offset="1" stop-color="#32EDFF"/>
</linearGradient>
<linearGradient id="paint2_linear_1405_9244" x1="0.933381" y1="27.8678" x2="47.7544" y2="27.8678" gradientUnits="userSpaceOnUse">
<stop stop-color="#2735D5"/>
<stop offset="0.3" stop-color="#7266F5"/>
<stop offset="0.38" stop-color="#8573FE"/>
<stop offset="0.62" stop-color="#D09DFD"/>
<stop offset="0.71" stop-color="#EDAEFD"/>
<stop offset="1" stop-color="#32EDFF"/>
</linearGradient>
<linearGradient id="paint3_linear_1405_9244" x1="4.57239" y1="38.7967" x2="44.9999" y2="38.7967" gradientUnits="userSpaceOnUse">
<stop stop-color="#2735D5"/>
<stop offset="0.3" stop-color="#7266F5"/>
<stop offset="0.38" stop-color="#8573FE"/>
<stop offset="0.62" stop-color="#D09DFD"/>
<stop offset="0.71" stop-color="#EDAEFD"/>
<stop offset="1" stop-color="#32EDFF"/>
</linearGradient>
<linearGradient id="paint4_linear_1405_9244" x1="3.69273" y1="13.3492" x2="44.9478" y2="13.3492" gradientUnits="userSpaceOnUse">
<stop stop-color="#2735D5"/>
<stop offset="0.3" stop-color="#7266F5"/>
<stop offset="0.38" stop-color="#8573FE"/>
<stop offset="0.62" stop-color="#D09DFD"/>
<stop offset="0.71" stop-color="#EDAEFD"/>
<stop offset="1" stop-color="#32EDFF"/>
</linearGradient>
<linearGradient id="paint5_linear_1405_9244" x1="12.315" y1="33.3919" x2="24.3077" y2="33.3919" gradientUnits="userSpaceOnUse">
<stop stop-color="#2735D5"/>
<stop offset="0.3" stop-color="#7266F5"/>
<stop offset="0.38" stop-color="#8573FE"/>
<stop offset="0.62" stop-color="#D09DFD"/>
<stop offset="0.71" stop-color="#EDAEFD"/>
<stop offset="1" stop-color="#32EDFF"/>
</linearGradient>
<linearGradient id="paint6_linear_1405_9244" x1="25.79" y1="36.3413" x2="40.9909" y2="36.3413" gradientUnits="userSpaceOnUse">
<stop stop-color="#2735D5"/>
<stop offset="0.3" stop-color="#7266F5"/>
<stop offset="0.38" stop-color="#8573FE"/>
<stop offset="0.62" stop-color="#D09DFD"/>
<stop offset="0.71" stop-color="#EDAEFD"/>
<stop offset="1" stop-color="#32EDFF"/>
</linearGradient>
<linearGradient id="paint7_linear_1405_9244" x1="28.5077" y1="31.0512" x2="33.6038" y2="31.0512" gradientUnits="userSpaceOnUse">
<stop stop-color="#2735D5"/>
<stop offset="0.3" stop-color="#7266F5"/>
<stop offset="0.38" stop-color="#8573FE"/>
<stop offset="0.62" stop-color="#D09DFD"/>
<stop offset="0.71" stop-color="#EDAEFD"/>
<stop offset="1" stop-color="#32EDFF"/>
</linearGradient>
</defs>
</svg>
