<svg width="32" height="30" viewBox="0 0 32 30" fill="none" xmlns="http://www.w3.org/2000/svg">
<path fill-rule="evenodd" clip-rule="evenodd" d="M9.16992 26.8869L13.3304 27.9907V26.5473L13.67 26.2076H16.0474V27.9058V29.0944H13.5002L10.3586 27.7359L9.16992 26.8869Z" fill="#CDBDB2"/>
<path fill-rule="evenodd" clip-rule="evenodd" d="M22.7549 26.8869L18.6794 27.9907V26.5473L18.3398 26.2076H15.9624V27.9058V29.0944H18.5096L21.651 27.7359L22.7549 26.8869Z" fill="#CDBDB2"/>
<path fill-rule="evenodd" clip-rule="evenodd" d="M13.6697 23.7454L13.3301 26.5472L13.7545 26.2076H18.1696L18.679 26.5472L18.3394 23.7454L17.6602 23.3208L14.264 23.4058L13.6697 23.7454Z" fill="#393939"/>
<path fill-rule="evenodd" clip-rule="evenodd" d="M11.3774 4.8114L13.4152 9.56612L14.3492 23.4058H17.6605L18.6793 9.56612L20.5472 4.8114H11.3774Z" fill="#F89C35"/>
<path fill-rule="evenodd" clip-rule="evenodd" d="M2.46232 15.2548L0.0849609 22.1321L6.02835 21.7925H9.84903V18.8208L9.67922 12.7076L8.83016 13.3869L2.46232 15.2548Z" fill="#F89D35"/>
<path fill-rule="evenodd" clip-rule="evenodd" d="M6.9624 16.0188L13.9247 16.1886L13.1606 19.7546L9.84919 18.9056L6.9624 16.0188Z" fill="#D87C30"/>
<path fill-rule="evenodd" clip-rule="evenodd" d="M6.9624 16.104L9.84919 18.821V21.538L6.9624 16.104Z" fill="#EA8D3A"/>
<path fill-rule="evenodd" clip-rule="evenodd" d="M9.84912 18.9058L13.2453 19.7548L14.3492 23.4058L13.585 23.8303L9.84912 21.6227V18.9058Z" fill="#F89D35"/>
<path fill-rule="evenodd" clip-rule="evenodd" d="M9.84917 21.6228L9.16992 26.887L13.67 23.7455L9.84917 21.6228Z" fill="#EB8F35"/>
<path fill-rule="evenodd" clip-rule="evenodd" d="M13.9247 16.1887L14.3493 23.4058L13.0757 19.7123L13.9247 16.1887Z" fill="#EA8E3A"/>
<path fill-rule="evenodd" clip-rule="evenodd" d="M5.94336 21.7078L9.84902 21.6228L9.16977 26.887L5.94336 21.7078Z" fill="#D87C30"/>
<path fill-rule="evenodd" clip-rule="evenodd" d="M1.95289 29.1793L9.16979 26.8868L5.94338 21.7076L0.0849609 22.1321L1.95289 29.1793Z" fill="#EB8F35"/>
<path fill-rule="evenodd" clip-rule="evenodd" d="M13.4152 9.56604L9.76436 12.6226L6.9624 16.0189L13.9247 16.2737L13.4152 9.56604Z" fill="#E8821E"/>
<path fill-rule="evenodd" clip-rule="evenodd" d="M9.16992 26.8868L13.67 23.7454L13.3304 26.4623V27.9906L10.2738 27.3962L9.16992 26.8868Z" fill="#DFCEC3"/>
<path fill-rule="evenodd" clip-rule="evenodd" d="M22.7549 26.8868L18.3398 23.7454L18.6794 26.4623V27.9906L21.736 27.3962L22.7549 26.8868Z" fill="#DFCEC3"/>
<path fill-rule="evenodd" clip-rule="evenodd" d="M12.0567 17.717L12.9907 19.6699L9.67933 18.8209L12.0567 17.717Z" fill="#393939"/>
<path fill-rule="evenodd" clip-rule="evenodd" d="M1.86768 0.820923L13.4148 9.56613L11.4621 4.81141L1.86768 0.820923Z" fill="#E88F35"/>
<path fill-rule="evenodd" clip-rule="evenodd" d="M1.86815 0.820801L0.339844 5.49061L1.1889 10.585L0.594561 10.9246L1.44362 11.6887L0.764372 12.2831L1.69833 13.1321L1.10399 13.6416L2.46249 15.3397L8.83041 13.3868C11.9436 10.8963 13.4719 9.62269 13.4153 9.56608C13.3587 9.50948 9.50965 6.59439 1.86815 0.820801Z" fill="#8E5A30"/>
<path fill-rule="evenodd" clip-rule="evenodd" d="M29.462 15.2548L31.8394 22.1321L25.896 21.7925H22.0753V18.8208L22.2451 12.7076L23.0942 13.3869L29.462 15.2548Z" fill="#F89D35"/>
<path fill-rule="evenodd" clip-rule="evenodd" d="M24.9619 16.0188L17.9997 16.1886L18.7637 19.7546L22.0751 18.9056L24.9619 16.0188Z" fill="#D87C30"/>
<path fill-rule="evenodd" clip-rule="evenodd" d="M24.9619 16.104L22.0751 18.821V21.538L24.9619 16.104Z" fill="#EA8D3A"/>
<path fill-rule="evenodd" clip-rule="evenodd" d="M22.0752 18.9058L18.679 19.7548L17.5751 23.4058L18.3393 23.8303L22.0752 21.6227V18.9058Z" fill="#F89D35"/>
<path fill-rule="evenodd" clip-rule="evenodd" d="M22.0751 21.6228L22.7544 26.887L18.3393 23.8303L22.0751 21.6228Z" fill="#EB8F35"/>
<path fill-rule="evenodd" clip-rule="evenodd" d="M17.9996 16.1887L17.575 23.4058L18.8486 19.7123L17.9996 16.1887Z" fill="#EA8E3A"/>
<path fill-rule="evenodd" clip-rule="evenodd" d="M25.981 21.7078L22.0753 21.6228L22.7545 26.887L25.981 21.7078Z" fill="#D87C30"/>
<path fill-rule="evenodd" clip-rule="evenodd" d="M29.9714 29.1793L22.7545 26.8868L25.981 21.7076L31.8394 22.1321L29.9714 29.1793Z" fill="#EB8F35"/>
<path fill-rule="evenodd" clip-rule="evenodd" d="M18.5091 9.56604L22.16 12.6226L24.9619 16.0189L17.9997 16.2737L18.5091 9.56604Z" fill="#E8821E"/>
<path fill-rule="evenodd" clip-rule="evenodd" d="M19.8676 17.717L18.9336 19.6699L22.245 18.8209L19.8676 17.717Z" fill="#393939"/>
<path fill-rule="evenodd" clip-rule="evenodd" d="M30.0566 0.820923L18.5095 9.56613L20.4622 4.81141L30.0566 0.820923Z" fill="#E88F35"/>
<path fill-rule="evenodd" clip-rule="evenodd" d="M30.0567 0.820801L31.585 5.49061L30.7359 10.585L31.3302 10.9246L30.4812 11.6887L31.1604 12.2831L30.2265 13.1321L30.8208 13.6416L29.4623 15.3397L23.0944 13.3868C19.9812 10.8963 18.4529 9.62269 18.5095 9.56608C18.5661 9.50948 22.4152 6.59439 30.0567 0.820801Z" fill="#8E5A30"/>
</svg>
