<svg width="40" height="40" viewBox="0 0 40 40" fill="none" xmlns="http://www.w3.org/2000/svg">
<g clip-path="url(#clip0_1655_8203)">
<path d="M20.1366 38.3283C20.5566 38.3283 20.8972 38.6651 20.8972 39.0806C20.8972 39.496 20.5566 39.8327 20.1366 39.8327C19.7166 39.8327 19.3761 39.496 19.3761 39.0806C19.3761 38.6651 19.7166 38.3283 20.1366 38.3283ZM19.3104 2.3958C19.6821 2.42649 19.9822 2.70812 20.0326 3.07325L20.9371 9.64584C21.241 11.8173 23.8599 12.7582 25.4766 11.2826L34.5398 3.0333C34.7585 2.83431 35.099 2.8481 35.3004 3.0641C35.4851 3.26228 35.4907 3.56568 35.3133 3.77032L27.41 12.887C25.955 14.5623 27.0286 17.1784 29.2465 17.3652L36.2199 18.0374C36.5672 18.0709 36.8213 18.3762 36.7874 18.7194C36.7594 19.0023 36.5414 19.231 36.2571 19.2753L28.9296 20.4194C26.8022 20.7094 25.8387 23.2288 27.2225 24.8655L29.7985 27.9024C30.006 28.147 29.9735 28.5116 29.7258 28.7166C29.5161 28.8904 29.2123 28.8971 28.9948 28.7329L25.8193 26.3346C24.1056 25.0459 21.6355 26.1413 21.4544 28.2741L20.7546 36.5922C20.7257 36.9358 20.4204 37.1911 20.0726 37.1626C19.7774 37.1383 19.539 36.9148 19.499 36.6249L18.3893 28.5899C18.0919 26.4184 15.473 25.4776 13.8498 26.9532L4.20828 35.7324C4.0087 35.9141 3.69781 35.9015 3.51388 35.7044C3.34513 35.5234 3.34 35.2465 3.50194 35.0596L11.9165 25.3488C13.3714 23.6734 12.3044 21.0573 10.0864 20.8706L3.11142 20.1982C2.76412 20.1647 2.51005 19.8594 2.54394 19.5162C2.57188 19.2333 2.78985 19.0047 3.0741 18.9602L10.3968 17.8163C12.5243 17.5263 13.4942 15.007 12.1105 13.3702L10.3569 11.303C10.0995 10.9996 10.1398 10.5475 10.447 10.2933C10.7072 10.0778 11.084 10.0695 11.3537 10.2734L13.5071 11.9011C15.2208 13.1898 17.6909 12.0945 17.872 9.96168L18.4513 3.1137C18.4878 2.68106 18.8725 2.35964 19.3104 2.3958ZM0.760536 18.7475C1.18057 18.7475 1.52107 19.0843 1.52107 19.4998C1.52107 19.9152 1.18057 20.252 0.760536 20.252C0.340503 20.252 0 19.9152 0 19.4998C0 19.0843 0.340503 18.7475 0.760536 18.7475ZM38.9043 17.9838C39.3243 17.9838 39.6649 18.3206 39.6649 18.736C39.6649 19.1514 39.3243 19.4882 38.9043 19.4882C38.4843 19.4882 38.1438 19.1514 38.1438 18.736C38.1438 18.3206 38.4843 17.9838 38.9043 17.9838ZM19.2006 0C19.6206 0 19.9611 0.336778 19.9611 0.752216C19.9611 1.16766 19.6206 1.50443 19.2006 1.50443C18.7806 1.50443 18.4401 1.16766 18.4401 0.752216C18.4401 0.336778 18.7806 0 19.2006 0Z" fill="url(#paint0_linear_1655_8203)"/>
<path d="M19.6568 26.2237C23.6245 26.2237 26.841 23.0425 26.841 19.1182C26.841 15.194 23.6245 12.0127 19.6568 12.0127C15.6891 12.0127 12.4727 15.194 12.4727 19.1182C12.4727 23.0425 15.6891 26.2237 19.6568 26.2237Z" fill="url(#paint1_radial_1655_8203)"/>
</g>
<defs>
<linearGradient id="paint0_linear_1655_8203" x1="5.18268" y1="6.336" x2="27.9286" y2="26.9274" gradientUnits="userSpaceOnUse">
<stop stop-color="#FFC10B"/>
<stop offset="1" stop-color="#FB3F2E"/>
</linearGradient>
<radialGradient id="paint1_radial_1655_8203" cx="0" cy="0" r="1" gradientUnits="userSpaceOnUse" gradientTransform="translate(18.0162 16.495) rotate(67.5196) scale(10.4448 10.5463)">
<stop stop-color="#FFC10B"/>
<stop offset="1" stop-color="#FB3F2E"/>
</radialGradient>
<clipPath id="clip0_1655_8203">
<rect width="40" height="40" fill="white"/>
</clipPath>
</defs>
</svg>
