<svg width="168" height="21" viewBox="0 0 168 21" fill="none" xmlns="http://www.w3.org/2000/svg">
<path d="M16.5495 20.0966H13.3794L3.84641 6.07741V20.0966H0.67627V1.29102H3.84641L13.3794 15.2828V1.29102H16.5495V20.0966Z" fill="white"/>
<path d="M34.6451 13.8029H22.946C23.0363 14.9927 23.4932 15.9467 24.3055 16.6649C25.1234 17.3831 26.1218 17.745 27.3064 17.745C29.0099 17.745 30.2171 17.0542 30.9222 15.6671H34.3405C33.8779 17.0377 33.0375 18.1562 31.8247 19.028C30.6119 19.8997 29.1058 20.3383 27.3064 20.3383C25.8454 20.3383 24.5311 20.0203 23.3747 19.3788C22.2184 18.7374 21.3102 17.8382 20.6502 16.6759C19.9903 15.5135 19.6631 14.1703 19.6631 12.6351C19.6631 11.1 19.9846 9.75672 20.622 8.59439C21.2594 7.43205 22.162 6.53838 23.3183 5.90787C24.4747 5.27736 25.8059 4.96484 27.3064 4.96484C28.8069 4.96484 30.0422 5.27187 31.1704 5.88594C32.2985 6.5 33.1785 7.36078 33.8103 8.46828C34.442 9.57579 34.7579 10.8478 34.7579 12.2897C34.7579 12.849 34.7184 13.3534 34.6451 13.8029ZM31.4468 11.3193C31.4298 10.1844 31.0124 9.27424 30.1945 8.5889C29.3766 7.90357 28.3669 7.56364 27.1654 7.56364C26.0711 7.56364 25.1347 7.90357 24.3563 8.57794C23.5778 9.25231 23.1153 10.1679 22.9686 11.3193H31.4468Z" fill="white"/>
<path d="M40.5905 19.3788C39.4229 18.7374 38.5034 17.8382 37.8378 16.6759C37.1722 15.5135 36.8394 14.1703 36.8394 12.6351C36.8394 11.1 37.1834 9.77865 37.866 8.61083C38.5485 7.44302 39.4849 6.53838 40.6751 5.90787C41.8597 5.27736 43.1853 4.96484 44.6519 4.96484C46.1185 4.96484 47.4385 5.28284 48.6287 5.90787C49.8132 6.53838 50.7496 7.43754 51.4378 8.61083C52.1203 9.78413 52.4644 11.1219 52.4644 12.6351C52.4644 14.1484 52.1147 15.4916 51.4096 16.6594C50.7045 17.8327 49.7456 18.7374 48.5328 19.3734C47.32 20.0093 45.9775 20.3328 44.5165 20.3328C43.0555 20.3328 41.7638 20.0148 40.5961 19.3734L40.5905 19.3788ZM46.801 17.098C47.5118 16.7197 48.0928 16.155 48.5384 15.3984C48.984 14.6418 49.204 13.7207 49.204 12.6406C49.204 11.5605 48.9897 10.6449 48.5666 9.89927C48.1379 9.15362 47.5738 8.5889 46.8687 8.2106C46.1636 7.83229 45.4078 7.6404 44.5898 7.6404C43.7719 7.6404 43.0217 7.83229 42.3222 8.2106C41.6284 8.5889 41.0756 9.15362 40.6695 9.89927C40.2633 10.6449 40.0603 11.5605 40.0603 12.6406C40.0603 14.2416 40.4833 15.4806 41.3238 16.3579C42.1643 17.2296 43.2304 17.6682 44.5052 17.6682C45.3232 17.6682 46.0847 17.4818 46.801 17.098Z" fill="white"/>
<path d="M72.6927 20.0965H67.9375L59.9896 8.3964V20.0965H55.2344V1.13184H59.9896L67.9375 12.8812V1.13184H72.6927V20.0965Z" fill="white"/>
<path d="M79.1005 19.3677C77.8877 18.7372 76.9344 17.838 76.235 16.6647C75.5411 15.4969 75.1914 14.1262 75.1914 12.5582C75.1914 10.9901 75.5411 9.64688 76.2462 8.46262C76.9513 7.28384 77.9159 6.3792 79.1343 5.74869C80.3584 5.11818 81.7291 4.80566 83.2465 4.80566C84.7639 4.80566 86.1346 5.11818 87.3587 5.74869C88.5827 6.3792 89.5473 7.28384 90.2467 8.46262C90.9519 9.6414 91.3016 11.0066 91.3016 12.5582C91.3016 14.1098 90.9462 15.4695 90.2298 16.6483C89.5134 17.8271 88.5432 18.7317 87.3135 19.3622C86.0838 19.9927 84.7075 20.3052 83.1844 20.3052C81.6614 20.3052 80.2963 19.9927 79.0836 19.3622L79.1005 19.3677ZM85.5197 15.3434C86.1572 14.6964 86.4787 13.7699 86.4787 12.5582C86.4787 11.3465 86.1684 10.4254 85.5479 9.77298C84.9275 9.12054 84.1603 8.80255 83.2521 8.80255C82.344 8.80255 81.5542 9.12054 80.945 9.76202C80.3358 10.4035 80.0256 11.3355 80.0256 12.5582C80.0256 13.7808 80.3245 14.691 80.9281 15.3434C81.5317 15.9958 82.2876 16.3138 83.1957 16.3138C84.1039 16.3138 84.8767 15.9904 85.5141 15.3434H85.5197Z" fill="white"/>
<path d="M118.236 6.56021C119.376 7.69513 119.946 9.26866 119.946 11.2863V20.0915H115.219V11.9058C115.219 10.9354 114.953 10.1788 114.423 9.64697C113.893 9.11514 113.165 8.85197 112.24 8.85197C111.315 8.85197 110.587 9.12063 110.057 9.64697C109.527 10.1788 109.267 10.9299 109.267 11.9058V20.0915H104.54V11.9058C104.54 10.9354 104.275 10.1788 103.751 9.64697C103.221 9.11514 102.493 8.85197 101.568 8.85197C100.643 8.85197 99.915 9.12063 99.3848 9.64697C98.8545 10.1788 98.595 10.9299 98.595 11.9058V20.0915H93.8398V5.01409H98.595V6.90562C99.0745 6.27511 99.7063 5.77618 100.485 5.40884C101.263 5.0415 102.143 4.85509 103.125 4.85509C104.292 4.85509 105.336 5.09633 106.25 5.58429C107.163 6.07225 107.885 6.76307 108.404 7.66223C108.94 6.83434 109.674 6.15997 110.599 5.63363C111.524 5.11278 112.534 4.84961 113.628 4.84961C115.557 4.84961 117.086 5.41981 118.231 6.54924L118.236 6.56021Z" fill="white"/>
<path d="M123.24 8.45166C123.843 7.28384 124.661 6.3792 125.699 5.74869C126.737 5.11818 127.893 4.80566 129.174 4.80566C130.268 4.80566 131.227 5.01949 132.051 5.45262C132.874 5.88575 133.512 6.45047 133.957 7.15226V5.01949H138.712V20.0969H133.957V17.9641C133.495 18.6659 132.852 19.2361 132.028 19.6638C131.205 20.0969 130.246 20.3107 129.151 20.3107C127.893 20.3107 126.743 19.9927 125.705 19.3512C124.667 18.7098 123.849 17.8051 123.245 16.6209C122.642 15.4421 122.343 14.0769 122.343 12.5308C122.343 10.9847 122.642 9.62495 123.245 8.45166H123.24ZM132.97 9.82781C132.31 9.1644 131.509 8.82996 130.567 8.82996C129.625 8.82996 128.818 9.15892 128.164 9.81684C127.504 10.4748 127.177 11.3794 127.177 12.5308C127.177 13.6821 127.504 14.5978 128.164 15.2721C128.824 15.9465 129.625 16.2864 130.567 16.2864C131.509 16.2864 132.316 15.952 132.97 15.2886C133.63 14.6252 133.957 13.715 133.957 12.5582C133.957 11.4013 133.63 10.4967 132.97 9.82781Z" fill="white"/>
<path d="M142.108 8.4517C142.712 7.28389 143.53 6.37924 144.568 5.74874C145.606 5.11823 146.762 4.80571 148.043 4.80571C149.063 4.80571 149.994 5.01405 150.835 5.42526C151.675 5.84194 152.341 6.39569 152.82 7.09748V0.101562H157.575V20.0969H152.82V17.9368C152.375 18.655 151.743 19.2362 150.914 19.6638C150.09 20.0969 149.131 20.3108 148.037 20.3108C146.756 20.3108 145.6 19.9928 144.562 19.3513C143.524 18.7098 142.706 17.8052 142.103 16.6209C141.499 15.4421 141.2 14.0769 141.2 12.5308C141.2 10.9847 141.499 9.625 142.103 8.4517H142.108ZM151.839 9.82786C151.179 9.16445 150.378 8.83001 149.436 8.83001C148.494 8.83001 147.687 9.15897 147.033 9.81689C146.373 10.4748 146.046 11.3795 146.046 12.5308C146.046 13.6822 146.373 14.5978 147.033 15.2722C147.693 15.9465 148.494 16.2865 149.436 16.2865C150.378 16.2865 151.184 15.952 151.839 15.2886C152.499 14.6252 152.826 13.7151 152.826 12.5582C152.826 11.4014 152.499 10.4967 151.839 9.82786Z" fill="white"/>
<path d="M164.48 20.0973C166.424 20.0973 168 18.5656 168 16.6761C168 14.7866 166.424 13.2549 164.48 13.2549C162.536 13.2549 160.96 14.7866 160.96 16.6761C160.96 18.5656 162.536 20.0973 164.48 20.0973Z" fill="url(#paint0_linear_1456_5469)"/>
<path d="M164.48 13.809C166.11 13.809 167.436 15.0974 167.436 16.6819C167.436 18.2664 166.11 19.5549 164.48 19.5549C162.85 19.5549 161.524 18.2664 161.524 16.6819C161.524 15.0974 162.85 13.809 164.48 13.809ZM164.48 13.2607C162.539 13.2607 160.96 14.7904 160.96 16.6819C160.96 18.5735 162.534 20.1031 164.48 20.1031C166.426 20.1031 168 18.5735 168 16.6819C168 14.7904 166.426 13.2607 164.48 13.2607Z" fill="white"/>
<defs>
<linearGradient id="paint0_linear_1456_5469" x1="160.96" y1="16.6761" x2="168" y2="16.6761" gradientUnits="userSpaceOnUse">
<stop stop-color="#2735D5"/>
<stop offset="0.3" stop-color="#7266F5"/>
<stop offset="0.38" stop-color="#8573FE"/>
<stop offset="0.62" stop-color="#D09DFD"/>
<stop offset="0.71" stop-color="#EDAEFD"/>
<stop offset="1" stop-color="#32EDFF"/>
</linearGradient>
</defs>
</svg>
