<svg width="35" height="40" viewBox="0 0 35 40" fill="none" xmlns="http://www.w3.org/2000/svg">
<g clip-path="url(#clip0_1456_840)">
<path d="M33.828 13.2459C33.7968 13.113 33.7656 12.9548 33.733 12.7862C33.5236 11.731 33.2622 10.4176 32.1944 9.70271L32.0963 9.63705C27.4553 6.53268 24.8088 4.8029 24.2326 4.49992C20.2747 2.41194 15.754 1.2105 10.7966 0.926924C10.6882 0.920954 10.5798 0.917969 10.4744 0.917969C8.99964 0.917969 7.77887 1.55526 6.94571 2.76118C6.06949 4.0283 5.40118 5.39094 4.9601 6.2909C4.86059 6.49388 4.74178 6.73715 4.67347 6.86402C2.56013 9.23258 0.659168 11.9579 0.862631 15.7861C0.889363 16.2801 0.975501 16.7039 1.1255 17.0756L1.89331 20.3322L2.30766 22.0888L2.33439 22.0828C3.88338 27.8588 6.1482 32.578 9.23132 36.4689C10.4848 38.0494 12.2877 39.1285 14.4456 39.5867C14.6194 39.624 14.7976 39.6419 14.9773 39.6419C16.256 39.6419 17.2287 38.7509 18.1703 37.8897C18.5356 37.5554 19.2069 36.9405 19.5054 36.836C19.7193 36.839 19.9376 36.839 20.1574 36.8405C20.3208 36.8405 20.4841 36.8405 20.6475 36.842C20.6891 36.842 20.7322 36.842 20.7737 36.842C24.1702 36.842 26.989 35.5241 29.1513 32.9272C29.7142 32.2496 31.0879 29.8378 32.1706 27.4394C33.3899 25.129 33.7894 23.0753 33.9231 22.3873V22.3843L33.926 22.3679C34.3211 20.3232 34.0552 14.2324 33.828 13.2429V13.2459Z" fill="#231F20"/>
<path d="M31.2783 22.7083C30.2848 25.641 29.1011 28.4752 26.9432 30.7751C24.622 33.2482 21.6651 33.9795 18.5582 32.6601C17.1488 32.0616 15.7825 31.2512 14.5706 30.311C10.6573 27.2708 7.74052 23.3381 5.11778 19.1785C4.6663 18.4636 3.28662 18.3965 3.28662 18.3965C3.28662 18.3965 3.32226 18.6054 3.34157 18.695C4.63957 24.7515 6.73212 30.4692 10.6187 35.3705C11.6613 36.6868 13.1434 37.4973 14.8068 37.8525C16.0751 38.1226 17.8334 35.0377 19.4701 35.0645C19.8651 35.0705 20.2616 35.0675 20.6582 35.0705C23.5408 35.0988 25.9289 34.0183 27.7764 31.7975C28.4967 30.9333 32.3684 24.0291 32.3209 20.6337C32.3179 20.4367 32.2615 20.2412 32.1917 19.8009C31.8323 20.9486 31.5753 21.8352 31.2783 22.7083Z" fill="white"/>
<path d="M3.93556 16.9782C5.28406 16.9379 6.64592 16.9543 7.9766 16.7692C10.332 16.4409 12.6637 15.935 15.0087 15.529C11.6449 14.838 8.44887 13.35 4.69446 13.6738C5.37762 12.5634 6.17811 12.0276 7.31274 12.1769C7.96323 12.262 8.6048 12.4246 9.24192 12.5843C13.8428 13.7455 18.417 15.032 23.0506 16.0349C25.6422 16.5961 28.2976 17.1379 30.9812 16.9842C31.8485 16.9349 32.0267 16.7066 32.2154 15.7126C32.3505 14.9947 32.2673 14.2992 32.1144 13.6335C31.9213 12.7918 31.5337 11.9948 31.2292 11.1799C31.0644 12.0709 31.1297 12.8664 31.051 13.647C30.9174 14.9544 30.2119 15.6305 28.9124 15.6693C28.1624 15.6917 27.3783 15.6394 26.6595 15.4365C23.5526 14.5574 20.465 13.6112 17.3715 12.6843C17.1517 12.6187 17.4874 12.353 17.8378 12.35C21.8224 12.3127 22.5605 12.3858 22.5605 12.3858C22.9081 12.3948 23.566 12.4112 23.9343 11.9829C24.059 11.8381 24.1155 11.6829 24.1437 11.5844C24.1526 11.456 24.1511 11.2486 24.059 11.0307C23.8259 10.4859 20.3239 8.77999 18.9383 8.17106C17.5512 7.56213 16.121 7.0517 14.5052 6.43232C14.373 6.38158 14.3849 6.27113 14.5305 6.27113C15.8997 6.26367 17.5364 6.36814 19.3497 6.72186C22.1922 7.27557 24.463 8.24419 26.0699 9.08744C25.9734 8.62925 24.2491 6.50844 23.4279 6.07562C19.4581 3.98166 15.1824 2.95931 10.7196 2.70559C9.79439 2.65336 9.02658 2.91454 8.43401 3.77272C7.19839 5.56071 7.26671 5.98159 9.37856 6.6144C11.3983 7.22035 13.4671 7.65615 15.4928 8.24419C16.9958 8.68149 18.4631 9.24565 19.9467 9.7516C20.0893 9.82324 20.0566 10.0202 19.8695 9.9889C18.0472 9.56504 16.2384 9.0755 14.4013 8.73074C12.0399 8.28747 9.66222 7.93823 7.28304 7.6069C6.90879 7.55467 6.35335 7.68451 6.11722 7.9457C4.14497 10.1396 2.49796 12.4739 2.66726 15.6782C2.71924 16.6558 3.07716 17.0036 3.93556 16.9782Z" fill="white"/>
<path d="M16.8919 26.3219C17.0998 26.304 17.4221 25.8204 17.4295 25.5428C17.48 23.8593 17.4548 22.1728 17.4548 20.3027C16.9795 20.5326 16.6528 20.6669 16.3468 20.8415C14.679 21.7922 12.986 22.1295 11.1786 21.1923C10.8177 21.0057 10.3365 20.9206 9.93852 20.9788C9.5613 21.0326 9.08606 21.2549 8.90636 21.5564C8.76527 21.7922 8.90636 22.331 9.09794 22.6146C10.5697 24.7876 12.539 26.4204 14.7904 27.7219C15.1454 27.9278 15.5627 28.0233 16.0171 28.195C16.0469 27.9159 16.1092 27.7472 16.0751 27.601C15.9013 26.8771 15.986 26.3965 16.8934 26.3189L16.8919 26.3219Z" fill="white"/>
<path d="M25.4891 30.2839C26.1589 29.66 26.7767 28.9436 27.2787 28.178C28.9287 25.6602 29.5569 23.7976 29.4277 20.7812C27.5564 26.3258 24.6292 29.7287 18.5269 31.2032C21.1258 32.4435 23.5035 32.1346 25.4891 30.2839Z" fill="white"/>
<path d="M24.077 22.303C24.2017 21.8284 24.1913 21.2628 23.4651 21.4135C22.5131 21.6105 21.5849 21.9239 20.4785 22.2344C20.9835 23.1418 21.5909 23.7582 22.5176 23.7462C23.3671 23.7343 23.8676 23.097 24.077 22.303Z" fill="white"/>
</g>
<defs>
<clipPath id="clip0_1456_840">
<rect width="35" height="40" fill="white"/>
</clipPath>
</defs>
</svg>
