<svg width="28" height="30" viewBox="0 0 28 30" fill="none" xmlns="http://www.w3.org/2000/svg">
<path d="M3.42814 26.0513H20.9319L20.0961 23.3413L22.0932 25.0593L23.9275 26.7003L27.2617 29.5003V3.04226C27.206 2.21719 26.8395 1.44409 26.2363 0.879359C25.6331 0.314624 24.8382 0.000404111 24.0124 0.000258903H3.43414C2.61171 -0.010315 1.81811 0.303365 1.22459 0.873603C0.631076 1.44384 0.285241 2.22491 0.261719 3.04826V23.0083C0.265908 23.4175 0.351619 23.8219 0.513832 24.1976C0.676044 24.5732 0.911494 24.9127 1.20639 25.1961C1.50128 25.4795 1.84969 25.7011 2.23119 25.848C2.6127 25.9948 3.01963 26.0639 3.42814 26.0513ZM16.3734 6.98526L16.3335 7.00026L16.3485 6.98526H16.3734ZM7.00797 8.54426C8.25686 7.58544 9.77304 7.04017 11.3457 6.98426L11.5135 7.15026C10.042 7.43372 8.66533 8.08332 7.51025 9.03926C7.51025 9.03926 7.84377 8.87626 8.42692 8.62626C10.2704 7.88766 12.2495 7.54975 14.2331 7.63492C16.2168 7.72008 18.1598 8.22637 19.9333 9.12026C18.8044 8.22377 17.497 7.57967 16.0988 7.23126L16.3275 7.00626C17.8754 7.07332 19.3657 7.61394 20.5973 8.55526C22.0256 11.2103 22.8013 14.168 22.8601 17.1833C22.2464 17.8517 21.5007 18.3851 20.6702 18.7495C19.8398 19.114 18.9427 19.3015 18.036 19.3003C18.036 19.3003 17.4569 18.6443 17.0445 18.0713C18.1282 17.8211 19.0965 17.2131 19.7935 16.3453C19.2298 16.6786 18.6485 16.9811 18.052 17.2513C17.328 17.5454 16.5763 17.7658 15.8083 17.9093C13.2809 18.3315 10.6849 17.9283 8.40396 16.7593L7.76188 16.4323C8.43655 17.2869 9.37474 17.8938 10.43 18.1583C9.92576 18.7343 9.42648 19.3903 9.42648 19.3903C8.52547 19.436 7.62719 19.2573 6.81201 18.8702C5.99682 18.4832 5.29016 17.8998 4.75523 17.1723C4.81267 14.1581 5.58481 11.2008 7.00797 8.54426Z" fill="white" fill-opacity="0.4"/>
<path d="M16.5912 15.6982C17.0167 15.6833 17.4198 15.5036 17.7155 15.1969C18.0113 14.8902 18.1766 14.4805 18.1766 14.0542C18.1766 13.6278 18.0113 13.2181 17.7155 12.9114C17.4198 12.6047 17.0167 12.425 16.5912 12.4102C16.1663 12.425 15.7637 12.6045 15.4683 12.9108C15.1729 13.2171 15.0078 13.6263 15.0078 14.0522C15.0078 14.478 15.1729 14.8872 15.4683 15.1935C15.7637 15.4998 16.1663 15.6793 16.5912 15.6942V15.6982Z" fill="white" fill-opacity="0.4"/>
<path d="M10.9267 15.6982C11.3521 15.6833 11.7552 15.5036 12.051 15.1969C12.3467 14.8902 12.512 14.4805 12.512 14.0542C12.512 13.6278 12.3467 13.2181 12.051 12.9114C11.7552 12.6047 11.3521 12.425 10.9267 12.4102C10.5017 12.425 10.0991 12.6045 9.80373 12.9108C9.50835 13.2171 9.34326 13.6263 9.34326 14.0522C9.34326 14.478 9.50835 14.8872 9.80373 15.1935C10.0991 15.4998 10.5017 15.6793 10.9267 15.6942V15.6982Z" fill="white" fill-opacity="0.4"/>
</svg>
