<svg width="30" height="24" viewBox="0 0 30 24" fill="none" xmlns="http://www.w3.org/2000/svg">
<path d="M30 2.83602C28.8714 3.32077 27.6778 3.64291 26.4559 3.79251C27.7433 3.04028 28.7059 1.84917 29.1613 0.444809C27.9557 1.14906 26.6367 1.64502 25.2613 1.91123C24.4172 1.02618 23.3227 0.411248 22.1195 0.14617C20.9163 -0.118907 19.6601 -0.0219069 18.5136 0.424596C17.367 0.871098 16.3832 1.64651 15.6895 2.6503C14.9958 3.65408 14.6244 4.83995 14.6232 6.05414C14.619 6.51789 14.6672 6.98066 14.7671 7.43387C12.3201 7.31525 9.92604 6.68927 7.74153 5.59688C5.55701 4.50448 3.63123 2.97028 2.09012 1.09458C1.29905 2.42756 1.05447 4.00765 1.40632 5.5122C1.75817 7.01676 2.67992 8.33231 3.98334 9.19022C3.00992 9.16456 2.05704 8.90878 1.20504 8.44443V8.51061C1.20672 9.90918 1.69755 11.2645 2.59493 12.3484C3.49232 13.4324 4.74146 14.1788 6.13215 14.4621C5.60706 14.5984 5.06592 14.6655 4.52291 14.6616C4.13215 14.6684 3.74178 14.6337 3.35858 14.5581C3.75493 15.7596 4.51942 16.8107 5.54696 17.5669C6.5745 18.3231 7.81465 18.7473 9.09693 18.7812C6.91979 20.4578 4.2348 21.3674 1.47103 21.3644C0.979394 21.3677 0.488044 21.34 0 21.2815C2.81223 23.0663 6.08928 24.0105 9.43487 23.9999C20.7526 23.9999 26.9396 14.7707 26.9396 6.76452C26.9396 6.49696 26.9301 6.2378 26.9169 5.98143C28.1302 5.12631 29.175 4.06039 30 2.83602Z" fill="white" fill-opacity="0.4"/>
</svg>
